<?xml version="1.0" encoding="UTF-8"?>
<svg version="1.1" xmlns="http://www.w3.org/2000/svg" width="1049" height="535">
<path d="M0 0 C0.68562012 0.22026855 1.37124023 0.44053711 2.07763672 0.66748047 C28.48172502 9.35527726 50.9512539 25.28528258 67 48 C67.62519531 48.87011719 68.25039063 49.74023438 68.89453125 50.63671875 C78.39055098 64.63423767 83.71099759 80.77945179 88 97 C88.31839844 98.20011719 88.63679688 99.40023437 88.96484375 100.63671875 C91.41715454 110.94618453 92.18797425 121.45990572 93 132 C93.05929687 132.73089844 93.11859375 133.46179688 93.1796875 134.21484375 C97.23772963 185.32685057 92.83800611 243.22609444 58.46484375 284.0078125 C34.74229607 311.05627434 2.08500731 324.24099468 -33 329 C-34.89428735 329.0871526 -36.79121622 329.13028949 -38.6875 329.125 C-39.61949219 329.12757813 -40.55148437 329.13015625 -41.51171875 329.1328125 C-44 329 -44 329 -47 328 C-46 325 -46 325 -42.67578125 323.2734375 C-41.22415664 322.63422252 -39.76950552 322.00185304 -38.3125 321.375 C-26.54594981 316.06103414 -16.32394075 309.78754601 -6.98828125 300.75 C-5 299 -5 299 -2 298 C-1.30289101 296.68232732 -0.63868754 295.34695971 0 294 C1.41015625 292.5703125 1.41015625 292.5703125 3.0625 291.125 C8.46319511 285.84730209 12.17103412 279.4446181 16 273 C16.37415039 272.38431152 16.74830078 271.76862305 17.13378906 271.13427734 C36.64369334 238.63189554 41.3997778 199.09422523 41.31567383 161.86108398 C41.3124973 158.93500983 41.33616968 156.0099362 41.36132812 153.08398438 C41.46184571 122.90231651 36.06508234 90.05751836 14.53125 67.34375 C1.52660456 55.30241163 -13.96312799 49.71194418 -31 46 C-32.24136719 45.71769531 -32.24136719 45.71769531 -33.5078125 45.4296875 C-62.25627437 40.47305614 -100.05324055 40.9430525 -127 53 C-128.00546875 53.41894531 -129.0109375 53.83789062 -130.046875 54.26953125 C-138.52353148 58.07963461 -144.54441964 63.47864226 -151 70 C-152.00353516 70.97066406 -152.00353516 70.97066406 -153.02734375 71.9609375 C-162.42247946 81.71824397 -167.34653987 95.22683407 -171 108 C-171.29648438 108.97453125 -171.59296875 109.9490625 -171.8984375 110.953125 C-180.51202391 142.84897963 -178.88325287 184.33299262 -170 216 C-169.82629883 216.64437012 -169.65259766 217.28874023 -169.47363281 217.95263672 C-164.34416663 236.57895153 -154.82913707 251.80461405 -138.74731445 262.64013672 C-135.83212595 264.60878325 -133.97849344 266.03225984 -132 269 C-132.33 269.33 -132.66 269.66 -133 270 C-135.45892182 269.93065947 -137.88166737 269.62778166 -140.328125 269.37109375 C-143.06974637 269.09401499 -145.79968594 268.86101742 -148.546875 268.66015625 C-171.0616575 266.89669522 -191.92749851 261.29778061 -207.75 244.125 C-233.74872007 212.64645602 -232.35683219 163.45803956 -228.75390625 125.28515625 C-225.4929031 95.67928374 -216.42330803 61.78314404 -196 39 C-195.34 39 -194.68 39 -194 39 C-193.7834375 38.45988281 -193.566875 37.91976562 -193.34375 37.36328125 C-191.52978142 34.17301674 -189.08837695 31.74843547 -186.5 29.1875 C-185.6958667 28.38965088 -185.6958667 28.38965088 -184.87548828 27.57568359 C-180.28172453 23.1097889 -175.43150746 19.40574979 -170 16 C-169.27039063 15.51402344 -168.54078125 15.02804688 -167.7890625 14.52734375 C-122.08366649 -14.72098987 -50.48175855 -16.41502988 0 0 Z " fill="#414568" transform="translate(330,104)"/>
<path d="M0 0 C-2.64560956 3.0689071 -5.08926899 4.61315203 -8.83203125 6.10546875 C-39.19523134 18.63370807 -62.51204074 42.56482058 -75.59765625 72.453125 C-85.66854777 97.92490634 -91.10377729 122.8642827 -91.203125 150.3125 C-91.21167511 152.18591064 -91.21167511 152.18591064 -91.22039795 154.09716797 C-91.22979615 156.72932095 -91.23636117 159.36148543 -91.24023438 161.99365234 C-91.24675786 165.96077658 -91.28096501 169.92752802 -91.3125 173.89453125 C-91.44286616 205.04715675 -87.52165823 238.65896522 -64.84765625 262.23828125 C-43.20713025 282.43357001 -15.28428051 285.20100742 12.83984375 285.13037109 C15.3646448 285.12502194 17.88926687 285.13034548 20.4140625 285.13671875 C50.61281571 285.15255816 77.31368771 281.76320712 100.1875 260.3125 C113.0926017 246.83565329 119.92915308 228.19331949 123 210 C123.13390137 209.23848633 123.26780273 208.47697266 123.40576172 207.69238281 C128.9087011 175.24422955 128.44525932 139.36723958 118 108 C117.608125 106.80890625 117.21625 105.6178125 116.8125 104.390625 C110.39232594 86.39724243 97.98871152 71.70623311 81 63 C81.33 62.34 81.66 61.68 82 61 C102.64342082 60.11652466 122.67972057 61.59984137 141 72 C141.81339844 72.46148437 142.62679688 72.92296875 143.46484375 73.3984375 C161.80108256 84.74496476 171.12950832 105.69492544 176 126 C183.70475599 163.20275725 180.11971731 204.74877584 170 241 C169.79117187 241.7523291 169.58234375 242.5046582 169.3671875 243.27978516 C163.3314329 264.42001565 151.56532215 282.77391693 137 299 C136.16275391 299.98033203 136.16275391 299.98033203 135.30859375 300.98046875 C129.33874707 307.54262397 121.38431402 312.19696928 114 317 C112.96230469 317.67675781 111.92460937 318.35351562 110.85546875 319.05078125 C98.23426599 326.83759718 84.34194893 330.74118175 70 334 C69.12472656 334.21527344 68.24945313 334.43054688 67.34765625 334.65234375 C57.02593367 337.13753882 46.60317663 337.17417102 36.03515625 337.203125 C35.32886015 337.20595238 34.62256405 337.20877975 33.89486504 337.21169281 C30.15117917 337.22659589 26.40753089 337.2358793 22.66381836 337.24023438 C19.61226344 337.24460414 16.56099362 337.25844967 13.50952148 337.28125 C-6.79559361 337.42981583 -26.26387436 337.11928382 -45.875 331.125 C-47.19419434 330.73103027 -47.19419434 330.73103027 -48.54003906 330.32910156 C-51.0334629 329.57254597 -53.51791892 328.79287235 -56 328 C-57.19367188 327.62101562 -58.38734375 327.24203125 -59.6171875 326.8515625 C-72.37916553 322.36418369 -84.80018385 314.87270253 -95 306 C-95.87914062 305.25234375 -96.75828125 304.5046875 -97.6640625 303.734375 C-122.91253906 281.61587487 -134.57788147 251.11059265 -141 219 C-141.21398437 218.09507812 -141.42796875 217.19015625 -141.6484375 216.2578125 C-145.00332696 201.81720134 -144.16083434 186.19577475 -144.13037109 171.4609375 C-144.12499538 168.37234621 -144.13035961 165.2838995 -144.13671875 162.1953125 C-144.1441968 146.96572092 -143.81002848 132.20825875 -140.625 117.25 C-140.41617188 116.21746094 -140.20734375 115.18492187 -139.9921875 114.12109375 C-135.19699936 90.87612683 -127.57195018 69.59170661 -113.16503906 50.54394531 C-112.12318267 49.16324543 -111.10304015 47.76622257 -110.0859375 46.3671875 C-89.22043994 18.26069535 -51.92381043 6.21267715 -18.9375 0.6875 C-17.86636963 0.50364746 -16.79523926 0.31979492 -15.69165039 0.13037109 C-10.15020174 -0.75155013 -5.49919442 -1.20904275 0 0 Z " fill="#5E16E9" transform="translate(184,96)"/>
<path d="M0 0 C8.28038946 6.00951342 15.61915837 12.12014381 21.3359375 20.6953125 C21.4609375 23.8828125 21.4609375 23.8828125 21.3359375 26.6953125 C18.25867891 28.20801486 15.17322481 29.70319831 12.0859375 31.1953125 C11.21324219 31.62457031 10.34054687 32.05382812 9.44140625 32.49609375 C8.59707031 32.90214844 7.75273438 33.30820312 6.8828125 33.7265625 C6.10776367 34.10361328 5.33271484 34.48066406 4.53417969 34.86914062 C2.3359375 35.6953125 2.3359375 35.6953125 -1.6640625 35.6953125 C-3.15625 34.12109375 -3.15625 34.12109375 -4.5390625 32.0078125 C-10.23574643 24.01271401 -16.08809767 20.82710467 -25.6640625 18.6953125 C-36.12968924 17.46186363 -45.19272823 19.46442298 -53.9765625 25.3203125 C-59.9997532 30.19328403 -63.66023407 37.30847226 -65.6640625 44.6953125 C-66.78468526 57.0351933 -65.67536482 67.18340583 -57.6640625 77.0703125 C-50.31421622 84.5633376 -42.33169226 87.12688312 -32.0390625 87.2578125 C-21.79709005 87.08182972 -13.09697392 83.97408521 -5.6640625 76.6953125 C-4.03841305 74.41297415 -2.88335975 72.2355151 -1.6640625 69.6953125 C1.85649667 70.28615654 4.76954972 71.2108667 7.98046875 72.76171875 C8.82158203 73.16455078 9.66269531 73.56738281 10.52929688 73.98242188 C11.39361328 74.40330078 12.25792969 74.82417969 13.1484375 75.2578125 C14.47391602 75.89493164 14.47391602 75.89493164 15.82617188 76.54492188 C17.99858087 77.59002674 20.16833707 78.64028012 22.3359375 79.6953125 C24.85125552 73.68414341 27.08774045 67.60323126 29.2109375 61.4453125 C33.35152275 49.45922041 37.77681493 37.57801108 42.18505859 25.68847656 C42.76800525 24.11396991 43.35085131 22.539426 43.93359375 20.96484375 C44.21789246 20.19836517 44.50219116 19.4318866 44.79510498 18.6421814 C46.24760314 14.70972095 47.6665793 10.76883398 49.03466797 6.80615234 C49.30588974 6.02269943 49.57711151 5.23924652 49.85655212 4.43205261 C50.36962742 2.94258334 50.87767503 1.45136959 51.37989807 -0.04179382 C53.11632003 -5.08507003 53.11632003 -5.08507003 55.3359375 -7.3046875 C59.96449561 -7.76700907 64.62448547 -7.62866639 69.2734375 -7.6171875 C70.57474609 -7.63330078 71.87605469 -7.64941406 73.21679688 -7.66601562 C75.08368164 -7.66698242 75.08368164 -7.66698242 76.98828125 -7.66796875 C78.13288818 -7.67094971 79.27749512 -7.67393066 80.45678711 -7.67700195 C83.3359375 -7.3046875 83.3359375 -7.3046875 85.12475586 -6.07568359 C86.56656829 -3.96745796 87.29840467 -2.04498516 88.0625 0.39453125 C88.51943237 1.81789795 88.51943237 1.81789795 88.9855957 3.27001953 C89.46838989 4.81085205 89.46838989 4.81085205 89.9609375 6.3828125 C92.67237775 14.77209803 95.51523006 23.07896397 98.6484375 31.3203125 C101.20315596 38.04269322 103.7419109 44.76911231 106.2109375 51.5234375 C106.45522995 52.19172577 106.6995224 52.86001404 106.95121765 53.54855347 C107.9182353 56.19615588 108.8842799 58.84410675 109.84780884 61.49298096 C112.55859172 68.94445307 115.3301725 76.35730461 118.3359375 83.6953125 C118.98788086 83.32140381 119.63982422 82.94749512 120.31152344 82.56225586 C127.44308036 78.47209821 127.44308036 78.47209821 131.3359375 77.6953125 C131.3359375 77.0353125 131.3359375 76.3753125 131.3359375 75.6953125 C134.3059375 75.2003125 134.3059375 75.2003125 137.3359375 74.6953125 C137.82900391 75.47455078 137.82900391 75.47455078 138.33203125 76.26953125 C142.08796481 81.77619807 145.85670171 85.68225514 152.3359375 87.6953125 C158.86665335 88.38466584 165.36067253 88.75844472 171.3359375 85.6953125 C173.21934933 82.69897549 173.3359375 80.74372467 173.3359375 77.1953125 C172.10413108 72.88399003 169.92327997 71.12222239 166.3359375 68.6953125 C162.96064142 67.04745735 162.96064142 67.04745735 159.3359375 65.7578125 C158.00866507 65.24856588 156.68185246 64.73811943 155.35546875 64.2265625 C154.68725098 63.97261719 154.0190332 63.71867187 153.33056641 63.45703125 C144.09915684 59.93169492 134.80745099 56.37491442 127.3359375 49.6953125 C127.3359375 49.0353125 127.3359375 48.3753125 127.3359375 47.6953125 C126.6759375 47.6953125 126.0159375 47.6953125 125.3359375 47.6953125 C124.51841447 46.11456686 123.70711753 44.53060027 122.8984375 42.9453125 C122.44597656 42.06359375 121.99351562 41.181875 121.52734375 40.2734375 C117.82919298 32.27088174 118.16677172 22.25109756 120.7734375 13.9453125 C124.53446042 4.99803692 131.0236304 -1.35696438 139.78125 -5.3671875 C152.78552475 -10.13939842 165.60408974 -9.61811196 178.3359375 -4.3046875 C181.43571927 -2.78070008 184.4144016 -1.14668946 187.3359375 0.6953125 C187.3359375 1.3553125 187.3359375 2.0153125 187.3359375 2.6953125 C187.9340625 2.9221875 188.5321875 3.1490625 189.1484375 3.3828125 C191.8988884 5.03308304 192.78090995 6.93725505 194.3359375 9.6953125 C191.93971722 12.23628586 189.51596233 14.74918243 187.0859375 17.2578125 C186.40402344 17.98162109 185.72210937 18.70542969 185.01953125 19.45117188 C184.35566406 20.13115234 183.69179688 20.81113281 183.0078125 21.51171875 C182.4003418 22.14537354 181.79287109 22.77902832 181.16699219 23.43188477 C179.3359375 24.6953125 179.3359375 24.6953125 177.27075195 24.49609375 C174.54457782 23.36778446 172.23486378 21.75519068 169.7734375 20.1328125 C162.93785931 16.0415056 157.76903873 15.86525537 150.0859375 17.0390625 C149.5084375 17.255625 148.9309375 17.4721875 148.3359375 17.6953125 C147.12125063 21.33937312 146.41459473 24.94118449 147.3359375 28.6953125 C150.69095392 32.76837671 153.9838335 34.73666501 158.8359375 36.6953125 C159.44687256 36.94821045 160.05780762 37.2011084 160.68725586 37.46166992 C163.66245224 38.68111325 166.64901885 39.80527456 169.68359375 40.87109375 C180.69393279 44.76417839 191.03567568 50.18311738 197.28515625 60.45703125 C201.42126881 69.26741229 202.58827259 79.73027251 200.2421875 89.22265625 C196.82811504 98.53777636 191.10428922 105.12431096 182.3359375 109.6953125 C170.10575381 114.79642228 157.16665992 116.55698624 144.3359375 112.6953125 C137.76918949 109.92296947 131.26490437 106.64795708 125.3359375 102.6953125 C126.3259375 107.6453125 126.3259375 107.6453125 127.3359375 112.6953125 C118.0959375 112.6953125 108.8559375 112.6953125 99.3359375 112.6953125 C95.96935308 105.96214366 95.96935308 105.96214366 95.01953125 102.86328125 C94.81263672 102.21037109 94.60574219 101.55746094 94.39257812 100.88476562 C93.97396318 99.53119996 93.55734944 98.17701403 93.14257812 96.82226562 C92.59339091 95.09551082 91.97010307 93.39269954 91.3359375 91.6953125 C89.04962256 90.55215503 87.79246344 90.57418518 85.25341797 90.58178711 C84.41269745 90.58186264 83.57197693 90.58193817 82.70578003 90.58201599 C81.79740387 90.58717728 80.88902771 90.59233856 79.953125 90.59765625 C79.02372101 90.5990712 78.09431702 90.60048615 77.13674927 90.60194397 C74.16144626 90.60755197 71.18621786 90.62010582 68.2109375 90.6328125 C66.19661567 90.63782647 64.18229266 90.64238955 62.16796875 90.64648438 C57.22392948 90.657524 52.27994615 90.67479401 47.3359375 90.6953125 C47.16465332 91.29069824 46.99336914 91.88608398 46.81689453 92.49951172 C46.03828889 95.19177335 45.24974666 97.88102361 44.4609375 100.5703125 C44.05681641 101.97603516 44.05681641 101.97603516 43.64453125 103.41015625 C43.38027344 104.30605469 43.11601563 105.20195312 42.84375 106.125 C42.60285645 106.95241699 42.36196289 107.77983398 42.11376953 108.63232422 C41.3359375 110.6953125 41.3359375 110.6953125 39.3359375 112.6953125 C36.63037109 112.92236328 36.63037109 112.92236328 33.234375 112.890625 C32.02265625 112.88417969 30.8109375 112.87773437 29.5625 112.87109375 C28.29148437 112.85433594 27.02046875 112.83757812 25.7109375 112.8203125 C24.4321875 112.81128906 23.1534375 112.80226563 21.8359375 112.79296875 C18.66908583 112.76933553 15.50260326 112.73638879 12.3359375 112.6953125 C12.0059375 112.0353125 11.6759375 111.3753125 11.3359375 110.6953125 C12.24740164 108.00195062 13.21452611 105.39234696 14.2734375 102.7578125 C16.54556163 97.39914501 16.54556163 97.39914501 17.3359375 91.6953125 C16.92085937 92.16839844 16.50578125 92.64148438 16.078125 93.12890625 C4.1373536 105.94400191 -10.96386724 113.63134523 -28.51342773 114.28271484 C-44.41422592 114.47246478 -56.7114227 111.34711829 -69.6640625 101.6953125 C-70.38078125 101.16164063 -71.0975 100.62796875 -71.8359375 100.078125 C-84.25238872 90.019837 -91.38788223 75.31096783 -93.6640625 59.6953125 C-94.9863294 42.36093689 -90.60176527 27.16552406 -79.421875 13.7109375 C-78.84179688 13.04578125 -78.26171875 12.380625 -77.6640625 11.6953125 C-77.16648437 11.09203125 -76.66890625 10.48875 -76.15625 9.8671875 C-58.00901594 -10.37746557 -22.5189116 -14.8879183 0 0 Z M67.3359375 24.6953125 C67.18560059 25.23196533 67.03526367 25.76861816 66.88037109 26.3215332 C63.82717537 37.19003302 60.69208712 48.01369446 57.16552734 58.73950195 C56.16235397 61.83278807 55.3359375 64.42090623 55.3359375 67.6953125 C64.5759375 67.6953125 73.8159375 67.6953125 83.3359375 67.6953125 C82.61939638 61.96298353 81.77846454 57.33460911 79.90234375 52.01953125 C79.66434555 51.32769241 79.42634735 50.63585358 79.18113708 49.92304993 C78.68137674 48.47564424 78.17783903 47.02953764 77.6706543 45.5847168 C76.89537393 43.37407701 76.13335386 41.15918806 75.37304688 38.94335938 C74.88358148 37.53098327 74.39337337 36.11886429 73.90234375 34.70703125 C73.6751918 34.0476506 73.44803986 33.38826996 73.21400452 32.70890808 C72.16001348 29.72158447 71.10653562 27.35120967 69.3359375 24.6953125 C68.6759375 24.6953125 68.0159375 24.6953125 67.3359375 24.6953125 Z M19.3359375 85.6953125 C19.6659375 86.6853125 19.9959375 87.6753125 20.3359375 88.6953125 C20.3359375 87.7053125 20.3359375 86.7153125 20.3359375 85.6953125 C20.0059375 85.6953125 19.6759375 85.6953125 19.3359375 85.6953125 Z " fill="#010001" transform="translate(639.6640625,238.3046875)"/>
<path d="M0 0 C13.06328807 12.27271444 20.75945872 27.04562951 21.34301758 45.11547852 C21.53262663 58.51114093 18.52877859 70.7182049 11 82 C10.37544922 82.99 10.37544922 82.99 9.73828125 84 C0.79987036 97.11308417 -13.75444716 104.83186269 -29 108 C-32.76207416 108.42726976 -36.46573548 108.52514461 -40.25 108.5 C-41.24926514 108.49500488 -42.24853027 108.49000977 -43.27807617 108.48486328 C-60.6388083 108.07927138 -75.04664474 100.47568675 -87 88 C-96.78371273 75.93404453 -101.60080705 63.20897047 -101.4375 47.625 C-101.43137695 46.62202881 -101.42525391 45.61905762 -101.41894531 44.58569336 C-101.25442251 36.76010301 -100.16392473 30.22247645 -97 23 C-96.53207031 21.87464844 -96.53207031 21.87464844 -96.0546875 20.7265625 C-89.55833082 6.47825079 -77.18126415 -4.25275104 -62.9375 -10.3125 C-41.1830646 -18.24486846 -18.30065971 -13.91881161 0 0 Z M-68.3125 24.8125 C-69.23785793 26.1889377 -70.13471102 27.58502896 -71 29 C-71.41378906 29.63164062 -71.82757812 30.26328125 -72.25390625 30.9140625 C-76.7326742 38.99769247 -76.04666385 49.33692474 -74.41015625 58.19140625 C-71.88683897 66.36602398 -66.53876031 73.14687755 -59.296875 77.69921875 C-49.79276587 82.54853759 -39.40072212 83.6519469 -28.9375 81.31640625 C-19.37469722 77.71541333 -11.33564761 71.20552004 -7 61.83984375 C-3.366582 51.93528604 -3.33357153 42.92487415 -7 33 C-10.87318128 25.14226801 -17.03428013 18.23425926 -25.08203125 14.61328125 C-40.6515367 9.34956944 -57.56970427 11.29650136 -68.3125 24.8125 Z " fill="#000000" transform="translate(978,244)"/>
<path d="M0 0 C7.04392378 5.31839883 14.79928778 11.40676332 18.328125 19.7578125 C18.11181641 21.75390625 18.11181641 21.75390625 17.328125 23.7578125 C15.7175293 24.93041992 15.7175293 24.93041992 13.65234375 25.86328125 C12.90662109 26.20681641 12.16089844 26.55035156 11.39257812 26.90429688 C10.21598633 27.41959961 10.21598633 27.41959961 9.015625 27.9453125 C8.24283203 28.30044922 7.47003906 28.65558594 6.67382812 29.02148438 C-0.61047241 32.32228092 -0.61047241 32.32228092 -3.671875 32.7578125 C-5.921875 30.7578125 -5.921875 30.7578125 -7.203125 29.35546875 C-14.01709201 21.9434674 -22.05607765 16.33848913 -32.3359375 15.5546875 C-43.85347849 15.37235176 -53.03447634 17.77566478 -61.671875 25.7578125 C-69.18290213 35.56559999 -70.82571403 45.66364638 -69.671875 57.7578125 C-68.06937814 65.99342929 -64.05718152 72.34063593 -57.671875 77.7578125 C-47.39331877 84.12290362 -36.68400564 85.12594932 -24.8671875 83.33203125 C-15.89000467 80.72832876 -9.33258937 73.86999209 -3.671875 66.7578125 C0.8587632 68.48801685 5.2157186 70.52222379 9.578125 72.6328125 C10.3103125 72.97183594 11.0425 73.31085938 11.796875 73.66015625 C17.1248689 76.25508661 17.1248689 76.25508661 18.12548828 78.72998047 C18.53503386 82.82839687 15.0705749 85.85467903 12.703125 88.94140625 C2.48771548 101.05540339 -11.43622435 109.29400701 -27.30322266 111.04882812 C-45.72269707 112.3377682 -62.2998727 108.47326328 -76.6484375 96.21484375 C-88.43938359 85.233138 -96.19448639 70.46909592 -97.0078125 54.21484375 C-97.36470519 35.90020278 -92.68724307 20.45768374 -79.89453125 6.8515625 C-57.64650499 -14.10615644 -25.30888629 -17.61002927 0 0 Z " fill="#010000" transform="translate(528.671875,241.2421875)"/>
<path d="M0 0 C2.50610352 -0.35644531 2.50610352 -0.35644531 5.62890625 -0.328125 C6.74587891 -0.32296875 7.86285156 -0.3178125 9.01367188 -0.3125 C10.18478516 -0.291875 11.35589844 -0.27125 12.5625 -0.25 C14.3249707 -0.24226562 14.3249707 -0.24226562 16.12304688 -0.234375 C24.84625547 -0.15374453 24.84625547 -0.15374453 26 1 C26.09798388 2.5285349 26.12631831 4.06158964 26.12698364 5.59326172 C26.12980347 6.5860614 26.13262329 7.57886108 26.13552856 8.60174561 C26.13350433 9.69996643 26.1314801 10.79818726 26.12939453 11.9296875 C26.13114685 13.07914856 26.13289917 14.22860962 26.13470459 15.41290283 C26.1391259 19.233617 26.13618413 23.05428532 26.1328125 26.875 C26.13348546 29.51676441 26.13445542 32.15852877 26.13571167 34.80029297 C26.13753321 40.34538271 26.13512747 45.89045915 26.13037109 51.43554688 C26.1249285 57.85494744 26.12669117 64.27431625 26.1321975 70.69371605 C26.13727426 76.85800983 26.13674711 83.02228948 26.13381577 89.18658447 C26.13314622 91.8149618 26.13397588 94.44333992 26.13629532 97.07171631 C26.13882019 100.73793723 26.13498357 104.40409622 26.12939453 108.0703125 C26.13141876 109.16853333 26.13344299 110.26675415 26.13552856 111.39825439 C26.13129883 112.88745392 26.13129883 112.88745392 26.12698364 114.40673828 C26.12660662 115.27469025 26.12622959 116.14264221 26.12584114 117.03689575 C26 119 26 119 25 120 C23.07332493 120.08748207 21.14348139 120.10697334 19.21484375 120.09765625 C17.46010742 120.09282227 17.46010742 120.09282227 15.66992188 120.08789062 C14.43822266 120.07951172 13.20652344 120.07113281 11.9375 120.0625 C10.08415039 120.05573242 10.08415039 120.05573242 8.19335938 120.04882812 C5.12885651 120.03699607 2.06445964 120.01967435 -1 120 C-1.89645255 105.92822063 -2.16296316 91.91058982 -2.16796875 77.8125 C-2.17119096 75.64965799 -2.17455572 73.48681619 -2.17805481 71.32397461 C-2.18398466 66.83642062 -2.18590049 62.34888574 -2.18530273 57.86132812 C-2.18520002 52.10576999 -2.19899044 46.35033222 -2.21607494 40.59480286 C-2.2271587 36.14940826 -2.22922327 31.70404348 -2.22869301 27.25863647 C-2.22987327 25.13430354 -2.23429761 23.00996984 -2.24202538 20.88565063 C-2.25177633 17.93539666 -2.24896961 14.98541419 -2.24291992 12.03515625 C-2.24853943 11.15941956 -2.25415894 10.28368286 -2.25994873 9.38140869 C-2.2283356 3.3425034 -2.2283356 3.3425034 0 0 Z " fill="#000001" transform="translate(845,231)"/>
<path d="M0 0 C1.33535628 4.00606884 0.22970201 6.99126391 -0.8125 10.9375 C-0.99103516 11.65357422 -1.16957031 12.36964844 -1.35351562 13.10742188 C-2.07625787 15.9227247 -2.78906822 18.58335384 -4.10546875 21.18359375 C-5.59982428 24.2179838 -5.45852261 27.426106 -5.65625 30.7578125 C-6 33 -6 33 -8 35 C-8.39298401 38.01433291 -8.39298401 38.01433291 -8.5 41.5 C-8.6814502 45.6007746 -9.06435265 49.40997098 -10.00708008 53.39306641 C-11.314941 59.82096851 -11.26887777 66.14143277 -11.23046875 72.6796875 C-11.23001053 73.96884064 -11.22955231 75.25799377 -11.2290802 76.58621216 C-11.22752671 79.30085749 -11.21932798 82.01536884 -11.20581055 84.72998047 C-11.18885692 88.17451013 -11.18499612 91.61889288 -11.18575573 95.0634594 C-11.1854151 98.39388769 -11.17655464 101.72426988 -11.16796875 105.0546875 C-11.16685593 106.27380829 -11.1657431 107.49292908 -11.16459656 108.74899292 C-11.1238335 116.21213869 -10.74048298 123.57329919 -10 131 C-10.66 131.33 -11.32 131.66 -12 132 C-13.11614725 128.29317309 -13.33784801 124.56862914 -13.5546875 120.7265625 C-13.59673309 119.99007477 -13.63877869 119.25358704 -13.68209839 118.49478149 C-14.16080669 109.15498433 -14.14970102 99.8106763 -14.13037109 90.4609375 C-14.12499538 87.37234621 -14.13035961 84.2838995 -14.13671875 81.1953125 C-14.1441968 65.96572092 -13.81002848 51.20825875 -10.625 36.25 C-10.31175781 34.70119141 -10.31175781 34.70119141 -9.9921875 33.12109375 C-8.12286333 24.05943086 -5.8157358 15.15089661 -2.875 6.375 C-2.54242188 5.37210938 -2.20984375 4.36921875 -1.8671875 3.3359375 C-1 1 -1 1 0 0 Z " fill="#5B1EC9" transform="translate(54,177)"/>
<path d="M0 0 C0.268125 0.639375 0.53625 1.27875 0.8125 1.9375 C1.88667752 4.33131686 1.88667752 4.33131686 5 5 C5 15 5 15 4.375 18.375 C3.96875179 22.30206605 4.52036487 23.46531609 6 27 C7.18505593 34.43896881 7.18802916 41.99425198 7.23828125 49.5078125 C7.246353 50.67327606 7.25442474 51.83873962 7.26274109 53.03952026 C7.27649198 55.48840891 7.28725379 57.937316 7.29516602 60.38623047 C7.30673887 62.88238164 7.32727307 65.37850706 7.35668945 67.87451172 C7.39936264 71.5024477 7.41552832 75.12965677 7.42578125 78.7578125 C7.44328934 79.86633575 7.46079742 80.97485901 7.47883606 82.11697388 C7.45994876 88.88434892 6.53814737 93.20011721 3 99 C2.67 99 2.34 99 2 99 C2.14260966 96.49977963 2.28901464 93.9998729 2.4375 91.5 C2.47681641 90.80390625 2.51613281 90.1078125 2.55664062 89.390625 C2.59853516 88.69453125 2.64042969 87.9984375 2.68359375 87.28125 C2.72025146 86.65283203 2.75690918 86.02441406 2.79467773 85.37695312 C2.97245848 83.31883972 3.23236994 81.2681335 3.50708008 79.22070312 C4.40217983 72.18544015 4.24218719 65.08121998 4.25 58 C4.25167175 57.20397369 4.25334351 56.40794739 4.25506592 55.58779907 C4.25691573 40.85643798 4.24047493 25.33881252 -0.125 11.140625 C-1.29448427 6.94301182 -0.74388771 4.24015995 0 0 Z " fill="#5B20D2" transform="translate(306,207)"/>
<path d="M0 0 C0.51046875 0.25910156 1.0209375 0.51820313 1.546875 0.78515625 C25.81423953 12.80291162 47.44335838 15.956043 74.375 16.5625 C76.19011141 16.60581737 78.00521567 16.64943521 79.8203125 16.69335938 C84.21346719 16.7990288 88.60669781 16.90066039 93 17 C89.8946962 20.1053038 87.17688588 20.12752465 82.984375 20.1328125 C81.48777344 20.13571289 81.48777344 20.13571289 79.9609375 20.13867188 C78.90132813 20.13416016 77.84171875 20.12964844 76.75 20.125 C75.67492187 20.12306641 74.59984375 20.12113281 73.4921875 20.11914062 C65.29155356 20.0748926 57.167833 19.73301065 49 19 C49 18.34 49 17.68 49 17 C43.06 17.33 37.12 17.66 31 18 C30.67 17.01 30.34 16.02 30 15 C28.02 15.33 26.04 15.66 24 16 C23.67 15.34 23.34 14.68 23 14 C20.47266765 13.34444881 20.47266765 13.34444881 18 13 C18 12.34 18 11.68 18 11 C17.0925 10.896875 16.185 10.79375 15.25 10.6875 C11.87873774 9.97434837 10.61792551 9.11123025 8 7 C7.154375 6.71125 6.30875 6.4225 5.4375 6.125 C2.33215773 4.69176511 1.5020804 3.0041608 0 0 Z " fill="#5F2BCF" transform="translate(126,365)"/>
<path d="M0 0 C10.28064577 15.42096866 8.28887111 40.80593737 8.3125 58.625 C8.31599457 59.49064575 8.31948914 60.3562915 8.3230896 61.24816895 C8.32867793 63.74121291 8.31810351 66.23358207 8.30078125 68.7265625 C8.3015567 69.47255707 8.30233215 70.21855164 8.3031311 70.9871521 C8.24477173 75.35797541 7.60650071 78.93478174 6 83 C5.67 83 5.34 83 5 83 C4.67 60.89 4.34 38.78 4 16 C3.01 15.67 2.02 15.34 1 15 C0.67 10.05 0.34 5.1 0 0 Z " fill="#703AD5" transform="translate(355,208)"/>
<path d="M0 0 C0.73828125 1.609375 0.73828125 1.609375 1 4 C-0.58203125 7.015625 -0.58203125 7.015625 -2.8125 10.25 C-3.90498047 11.86648438 -3.90498047 11.86648438 -5.01953125 13.515625 C-5.67308594 14.33546875 -6.32664062 15.1553125 -7 16 C-7.66 16 -8.32 16 -9 16 C-9.495 17.485 -9.495 17.485 -10 19 C-11.41666314 19.91071202 -12.83655896 20.81684173 -14.2734375 21.6953125 C-16.33459888 23.25284169 -17.67197651 25.02079188 -19.25 27.0625 C-23.07865934 31.6827024 -27.23867184 32.88714788 -33 34 C-33 34.66 -33 35.32 -33 36 C-34.093125 36.268125 -35.18625 36.53625 -36.3125 36.8125 C-38.7948042 37.42319077 -41.24805682 38.07359139 -43.69921875 38.80078125 C-49.35412784 40.46491768 -54.1057282 41.33363803 -60 41 C-60 41.66 -60 42.32 -60 43 C-62.2910905 43.19441368 -64.58290337 43.38033135 -66.875 43.5625 C-68.78925781 43.71912109 -68.78925781 43.71912109 -70.7421875 43.87890625 C-74 44 -74 44 -76 43 C-76 42.34 -76 41.68 -76 41 C-75.44763672 40.96559814 -74.89527344 40.93119629 -74.32617188 40.89575195 C-49.86593673 39.26186094 -28.32736323 33.11620709 -11 15 C-10.37480469 14.34773438 -9.74960937 13.69546875 -9.10546875 13.0234375 C-5.51267802 9.03953285 -2.71049376 4.61743406 0 0 Z " fill="#6026BE" transform="translate(296,340)"/>
<path d="M0 0 C-0.0707373 0.86496094 -0.14147461 1.72992188 -0.21435547 2.62109375 C-1.06588085 14.31796959 -1.1531372 25.97809075 -1.13037109 37.70263672 C-1.1249644 41.02185537 -1.13037226 44.34094144 -1.13671875 47.66015625 C-1.13605864 49.79427113 -1.13477887 51.92838593 -1.1328125 54.0625 C-1.13483673 55.04283203 -1.13686096 56.02316406 -1.13894653 57.03320312 C-1.12055007 62.45363717 -0.7598098 67.63400633 0 73 C0.0612491 74.99917047 0.0874994 77.00004774 0.0625 79 C0.05347656 79.94875 0.04445313 80.8975 0.03515625 81.875 C0.02355469 82.57625 0.01195313 83.2775 0 84 C-10.50632015 65.16285611 -5.65948565 32.3930903 -4.125 11.75 C-4.04677002 10.67814453 -3.96854004 9.60628906 -3.88793945 8.50195312 C-3.80374756 7.52677734 -3.71955566 6.55160156 -3.6328125 5.546875 C-3.55949707 4.68932617 -3.48618164 3.83177734 -3.41064453 2.94824219 C-3.27513184 2.30532227 -3.13961914 1.66240234 -3 1 C-1 0 -1 0 0 0 Z " fill="#696A87" transform="translate(105,223)"/>
<path d="M0 0 C-2.63813794 3.06024001 -5.06962599 4.6120228 -8.80859375 6.08984375 C-15.88040504 9.0269775 -22.78670513 12.51262037 -29 17 C-29.66 16.67 -30.32 16.34 -31 16 C-30.67 14.68 -30.34 13.36 -30 12 C-28.02 11.67 -26.04 11.34 -24 11 C-24 10.34 -24 9.68 -24 9 C-23.38125 8.71125 -22.7625 8.4225 -22.125 8.125 C-19.86674235 7.06279958 -19.86674235 7.06279958 -18 5 C-24.59685235 4.69951419 -24.59685235 4.69951419 -31 6 C-35.32109796 7.44036599 -39.48519734 7.16060563 -44 7 C-38.28188492 3.71842164 -31.40904951 3.17485205 -25 2 C-23.83839355 1.78029541 -23.83839355 1.78029541 -22.65332031 1.55615234 C-20.27102812 1.1079551 -17.88622895 0.6766947 -15.5 0.25 C-14.75927246 0.11021729 -14.01854492 -0.02956543 -13.25537109 -0.17358398 C-8.52925392 -0.98973862 -4.71322271 -0.91783811 0 0 Z " fill="#6228D6" transform="translate(184,96)"/>
<path d="M0 0 C0 0.33 0 0.66 0 1 C-4.33474019 1.83038862 -8.4207319 2.12184768 -12.83154297 2.11352539 C-13.48590836 2.11367142 -14.14027374 2.11381744 -14.81446838 2.1139679 C-16.95707626 2.11327647 -19.09959499 2.10552052 -21.2421875 2.09765625 C-22.73576815 2.09578933 -24.22934942 2.09436672 -25.72293091 2.09336853 C-29.63885207 2.08956494 -33.55473568 2.07975324 -37.47064209 2.06866455 C-41.47261039 2.05840388 -45.47458481 2.05386096 -49.4765625 2.04882812 C-57.3177255 2.0381289 -65.15885807 2.0210786 -73 2 C-73 1.67 -73 1.34 -73 1 C-48.63567967 -2.21322022 -24.47534563 -2.77964331 0 0 Z " fill="#7D7C92" transform="translate(294,97)"/>
<path d="M0 0 C0.99 0 1.98 0 3 0 C3 19.47 3 38.94 3 59 C2.01 58.67 1.02 58.34 0 58 C-0.15361312 50.58550536 -0.30179477 43.17092344 -0.4429636 35.75618076 C-0.50868009 32.31354881 -0.57629621 28.87097566 -0.64819336 25.4284668 C-0.73068929 21.47454777 -0.80503145 17.52049615 -0.87890625 13.56640625 C-0.90594131 12.32476212 -0.93297638 11.08311798 -0.96083069 9.80384827 C-0.98092697 8.66274094 -1.00102325 7.52163361 -1.02172852 6.34594727 C-1.04171402 5.335569 -1.06169952 4.32519073 -1.08229065 3.28419495 C-1 1 -1 1 0 0 Z " fill="#7240D6" transform="translate(89,232)"/>
<path d="M0 0 C0.99 0 1.98 0 3 0 C3.9070344 15.32773321 4.18632296 30.61951026 4.18530273 45.97290039 C4.18753597 49.7483169 4.20590621 53.52346124 4.22460938 57.29882812 C4.22753588 59.70312401 4.22952563 62.10742127 4.23046875 64.51171875 C4.24124702 66.20200447 4.24124702 66.20200447 4.25224304 67.92643738 C4.24916641 68.95964615 4.24608978 69.99285492 4.24291992 71.05737305 C4.24434494 71.96666061 4.24576996 72.87594818 4.24723816 73.81278992 C4 76 4 76 2 78 C2 77.34 2 76.68 2 76 C1.34 76 0.68 76 0 76 C0.0707373 75.04254883 0.14147461 74.08509766 0.21435547 73.09863281 C1.00304317 61.65419496 1.15455157 50.24730691 1.13037109 38.77832031 C1.12498259 35.74018423 1.13036691 32.70219431 1.13671875 29.6640625 C1.13975736 19.72780531 1.03740326 9.89195908 0 0 Z " fill="#545374" transform="translate(370,227)"/>
<path d="M0 0 C1.33535628 4.00606884 0.22970201 6.99126391 -0.8125 10.9375 C-0.99103516 11.65357422 -1.16957031 12.36964844 -1.35351562 13.10742188 C-2.07625787 15.9227247 -2.78906822 18.58335384 -4.10546875 21.18359375 C-5.59982428 24.2179838 -5.45852261 27.426106 -5.65625 30.7578125 C-6 33 -6 33 -8 35 C-8.39298401 38.01433291 -8.39298401 38.01433291 -8.5 41.5 C-8.93798042 48.98408651 -9.38293106 56.31069258 -13 63 C-14.52020731 44.11564697 -8.83489389 24.16082506 -2.875 6.375 C-2.54242188 5.37210938 -2.20984375 4.36921875 -1.8671875 3.3359375 C-1 1 -1 1 0 0 Z " fill="#6E37CE" transform="translate(54,177)"/>
<path d="M0 0 C0.99 0 1.98 0 3 0 C3 17.16 3 34.32 3 52 C1.515 52.495 1.515 52.495 0 53 C0 35.51 0 18.02 0 0 Z " fill="#6E6E88" transform="translate(151,238)"/>
<path d="M0 0 C2.0625 0.4375 2.0625 0.4375 4 1 C0.25 4 0.25 4 -2 4 C-2.33 4.99 -2.66 5.98 -3 7 C-3.99 7 -4.98 7 -6 7 C-5.67 7.66 -5.34 8.32 -5 9 C-2.36 9 0.28 9 3 9 C1 12 1 12 -1.4375 12.6875 C-13.70833333 13.76388889 -13.70833333 13.76388889 -19 12 C-18 9 -18 9 -16.34179688 7.94091797 C-15.64119141 7.62783691 -14.94058594 7.31475586 -14.21875 6.9921875 C-13.45949219 6.64542969 -12.70023437 6.29867188 -11.91796875 5.94140625 C-10.72107422 5.41353516 -10.72107422 5.41353516 -9.5 4.875 C-7.92634015 4.16570905 -6.35338454 3.4548529 -4.78125 2.7421875 C-4.08064453 2.4313623 -3.38003906 2.12053711 -2.65820312 1.80029297 C-1.00471732 1.11454174 -1.00471732 1.11454174 0 0 Z " fill="#4B4B6D" transform="translate(302,420)"/>
<path d="M0 0 C-0.33 0.66 -0.66 1.32 -1 2 C-3.12921149 2.51231375 -5.28047198 2.9340333 -7.4375 3.3125 C-13.24632306 4.46358445 -17.95882693 6.12093101 -23.109375 9.01171875 C-25 10 -25 10 -27 10 C-27.33 10.66 -27.66 11.32 -28 12 C-29.65 12 -31.3 12 -33 12 C-33.33 12.99 -33.66 13.98 -34 15 C-36.5 16.5 -36.5 16.5 -39 18 C-39.33 18.99 -39.66 19.98 -40 21 C-42.31 21.33 -44.62 21.66 -47 22 C-45.69883227 18.09649682 -43.38890902 16.91611833 -40.0625 14.8125 C-39.14271362 14.22637939 -39.14271362 14.22637939 -38.2043457 13.62841797 C-10.2288349 -3.62958658 -10.2288349 -3.62958658 0 0 Z " fill="#6930D4" transform="translate(141,104)"/>
<path d="M0 0 C0.66 0.66 1.32 1.32 2 2 C0.21326795 3.5058745 -1.57953508 5.0045485 -3.375 6.5 C-4.37273437 7.3353125 -5.37046875 8.170625 -6.3984375 9.03125 C-9 11 -9 11 -11 11 C-11.2475 11.53625 -11.495 12.0725 -11.75 12.625 C-13.78472697 16.49098124 -15.97993645 20.00993832 -19.125 23.0625 C-21.23253759 25.24028884 -21.93883327 27.19548794 -23 30 C-23.66 30.33 -24.32 30.66 -25 31 C-25.495 32.485 -25.495 32.485 -26 34 C-26.66 34 -27.32 34 -28 34 C-28.061875 34.804375 -28.12375 35.60875 -28.1875 36.4375 C-29.26536993 41.1635451 -31.51591419 44.87513427 -34 49 C-34.66 49 -35.32 49 -36 49 C-31.5732145 31.292858 -17.5384584 15.44431411 -4.1875 3.6875 C-3.39730469 2.99011719 -2.60710937 2.29273438 -1.79296875 1.57421875 C-1.20128906 1.05472656 -0.60960937 0.53523438 0 0 Z " fill="#7340D0" transform="translate(91,126)"/>
<path d="M0 0 C14.52 0 29.04 0 44 0 C40.8946962 3.1053038 38.17688588 3.12752465 33.984375 3.1328125 C32.98664063 3.13474609 31.98890625 3.13667969 30.9609375 3.13867188 C29.90132812 3.13416016 28.84171875 3.12964844 27.75 3.125 C26.13738281 3.12209961 26.13738281 3.12209961 24.4921875 3.11914062 C16.29155356 3.0748926 8.167833 2.73301065 0 2 C0 1.34 0 0.68 0 0 Z " fill="#8C51E8" transform="translate(175,382)"/>
<path d="M0 0 C0.33 0 0.66 0 1 0 C1 3.3 1 6.6 1 10 C0.34 10 -0.32 10 -1 10 C-3.31490235 16.54016101 -5.33421399 22.94236678 -6.5703125 29.7734375 C-7 32 -7 32 -8 35.4375 C-9.14242886 39.50740283 -9.80040826 43.5669613 -10.4375 47.7421875 C-10.7159375 48.85980469 -10.7159375 48.85980469 -11 50 C-11.99 50.495 -11.99 50.495 -13 51 C-11.86835695 33.45953278 -6.67967662 16.19026381 0 0 Z " fill="#64637D" transform="translate(116,172)"/>
<path d="M0 0 C0.33 0 0.66 0 1 0 C1.22281874 1.91503674 1.42771076 3.83216506 1.625 5.75 C1.74101563 6.81734375 1.85703125 7.8846875 1.9765625 8.984375 C2.00029475 12.03792399 1.61420985 13.46162421 0 16 C0.99 16 1.98 16 3 16 C3.16435547 17.37671875 3.16435547 17.37671875 3.33203125 18.78125 C4.27414043 26.78086178 4.27414043 26.78086178 6.625 34.4375 C8.15682566 38.40632104 8.26105288 40.82315392 8 45 C5.40282607 41.10423911 4.33450695 37.14793099 3 32.6875 C2.7323584 31.79772461 2.4647168 30.90794922 2.18896484 29.99121094 C0.06634204 22.70428226 -1.27348036 15.56582526 -2 8 C-1.34 8 -0.68 8 0 8 C0 5.36 0 2.72 0 0 Z " fill="#5B29CC" transform="translate(45,304)"/>
<path d="M0 0 C-1.23296284 3.69888852 -2.75861461 4.2007602 -6.11816406 5.90625 C-6.82166992 6.2465625 -7.52517578 6.586875 -8.25 6.9375 C-8.96639648 7.28941406 -9.68279297 7.64132812 -10.42089844 8.00390625 C-17.84148477 11.55474065 -25.6745766 15 -34 15 C-34 14.34 -34 13.68 -34 13 C-32.329375 12.5978125 -32.329375 12.5978125 -30.625 12.1875 C-26.78159049 11.34190981 -26.78159049 11.34190981 -25 8 C-23.38127325 8.06744695 -21.76259846 8.13699503 -20.14453125 8.21875 C-15.02415695 7.69645317 -9.6010313 4.6010313 -6 1 C-3.90200436 0.34437636 -2.19959601 0 0 0 Z " fill="#6C31D1" transform="translate(296,412)"/>
<path d="M0 0 C4.11778316 -0.24222254 7.13443193 0.63094464 11 2 C12.66088045 2.36106097 14.32618981 2.70462173 16 3 C16 3.66 16 4.32 16 5 C16.66 5 17.32 5 18 5 C18.33 5.66 18.66 6.32 19 7 C23.61803076 8.91479324 28.07253501 9.49026224 33 10 C33 10.66 33 11.32 33 12 C34.98 12.33 36.96 12.66 39 13 C39 13.33 39 13.66 39 14 C32.51246927 13.42534693 26.77671737 11.85230327 20.625 9.75 C19.70050049 9.43861084 18.77600098 9.12722168 17.82348633 8.80639648 C11.62569854 6.6747953 5.67355344 4.31849352 0 1 C0 0.67 0 0.34 0 0 Z " fill="#5118B9" transform="translate(110,415)"/>
<path d="M0 0 C0.66 0 1.32 0 2 0 C1.125 7.875 1.125 7.875 0 9 C-0.28474016 12.06886617 -0.44871799 15.13775297 -0.62109375 18.21484375 C-1 21 -1 21 -3 23 C-3.45811675 24.97235333 -3.45811675 24.97235333 -3.625 27.125 C-3.74875 28.40375 -3.8725 29.6825 -4 31 C-5.32 30.67 -6.64 30.34 -8 30 C-8.33 30.99 -8.66 31.98 -9 33 C-10 31 -10 31 -9.51855469 29.21923828 C-9.23915039 28.51009277 -8.95974609 27.80094727 -8.671875 27.0703125 C-8.36773682 26.27987549 -8.06359863 25.48943848 -7.75024414 24.67504883 C-7.42016357 23.83353271 -7.09008301 22.9920166 -6.75 22.125 C-3.95888376 14.81670974 -1.60724736 7.66886596 0 0 Z " fill="#652DD3" transform="translate(307,307)"/>
<path d="M0 0 C0.33 0 0.66 0 1 0 C1.33 13.86 1.66 27.72 2 42 C2.33 42 2.66 42 3 42 C3.10103455 47.60741736 2.76082036 52.94806761 2 58.5 C1.90460938 59.22703125 1.80921875 59.9540625 1.7109375 60.703125 C1.47853833 62.46935867 1.23993362 64.23477406 1 66 C0.67 66 0.34 66 0 66 C0 44.22 0 22.44 0 0 Z " fill="#5F20D4" transform="translate(359,246)"/>
<path d="M0 0 C0.33 0 0.66 0 1 0 C1.80782144 4.96820258 2.15971844 9.79482674 2.16796875 14.83203125 C2.17129715 15.54985275 2.17462555 16.26767426 2.17805481 17.00724792 C2.18308125 18.51060348 2.18546447 20.01397003 2.18530273 21.51733398 C2.18751061 23.82358694 2.20576852 26.12937696 2.22460938 28.43554688 C2.2275399 29.90104004 2.22952697 31.36653546 2.23046875 32.83203125 C2.23765427 33.52158401 2.24483978 34.21113678 2.25224304 34.92158508 C2.22885479 39.77114521 2.22885479 39.77114521 0 42 C-0.02505615 41.42967041 -0.0501123 40.85934082 -0.07592773 40.27172852 C-0.19156549 37.70173843 -0.31443624 35.13214473 -0.4375 32.5625 C-0.47681641 31.66466797 -0.51613281 30.76683594 -0.55664062 29.84179688 C-0.59853516 28.98779297 -0.64042969 28.13378906 -0.68359375 27.25390625 C-0.72025146 26.46314697 -0.75690918 25.6723877 -0.79467773 24.85766602 C-0.80563257 22.98598559 -0.80563257 22.98598559 -2 22 C-2.12717273 19.05136708 -2.18521566 16.13657732 -2.1875 13.1875 C-2.19974609 12.36701172 -2.21199219 11.54652344 -2.22460938 10.70117188 C-2.22654297 9.90646484 -2.22847656 9.11175781 -2.23046875 8.29296875 C-2.23457764 7.5661792 -2.23868652 6.83938965 -2.24291992 6.09057617 C-1.965442 3.70259282 -1.18192164 2.07663368 0 0 Z " fill="#121214" transform="translate(845,307)"/>
<path d="M0 0 C0.99 0 1.98 0 3 0 C3.90363196 15.34560702 4.1243417 30.62945265 4 46 C3.67 46 3.34 46 3 46 C1.87239233 39.47866898 1.70694282 32.98114289 1.5 26.375 C1.19592757 17.55997111 0.83564454 8.7831575 0 0 Z " fill="#535075" transform="translate(370,227)"/>
<path d="M0 0 C0.33 0.66 0.66 1.32 1 2 C4.27555608 2.47001033 4.27555608 2.47001033 8.0625 2.625 C9.99802734 2.73714844 9.99802734 2.73714844 11.97265625 2.8515625 C13.47119141 2.92503906 13.47119141 2.92503906 15 3 C15 3.66 15 4.32 15 5 C15.85464844 5.10441406 16.70929688 5.20882812 17.58984375 5.31640625 C21.27971147 6.05607045 24.17845772 7.30341111 27.5625 8.9375 C31.34096932 10.74885102 35.09901101 12.47086668 39 14 C40.34050052 14.65213539 41.67661368 15.31379969 43 16 C42.01 16.99 41.02 17.98 40 19 C39.52433594 18.63648438 39.04867187 18.27296875 38.55859375 17.8984375 C26.68197117 9.36826659 13.08506413 5.9307967 -1 3 C-0.67 2.01 -0.34 1.02 0 0 Z " fill="#3C3A5B" transform="translate(296,146)"/>
<path d="M0 0 C0.33 0.99 0.66 1.98 1 3 C1.66 3 2.32 3 3 3 C2.55355616 10.58954531 -0.11500562 17.01639737 -3 24 C-3.98316039 20.59611697 -4.29411056 17.27740411 -4.5625 13.75 C-4.64628906 12.67234375 -4.73007812 11.5946875 -4.81640625 10.484375 C-4.87699219 9.66453125 -4.93757813 8.8446875 -5 8 C-4.01 8.495 -4.01 8.495 -3 9 C-1.89363605 6.60931266 -1.89363605 6.60931266 -1 4 C-1.33 3.34 -1.66 2.68 -2 2 C-1.34 2 -0.68 2 0 2 C0 1.34 0 0.68 0 0 Z " fill="#383D5B" transform="translate(413,328)"/>
<path d="M0 0 C0.33 0 0.66 0 1 0 C1 2.97 1 5.94 1 9 C0.01 9 -0.98 9 -2 9 C-1.95359375 9.58007812 -1.9071875 10.16015625 -1.859375 10.7578125 C-1.58987432 16.59057731 -2.28782564 19.4757875 -6 24 C-5.34 24.33 -4.68 24.66 -4 25 C-5.65 25.33 -7.3 25.66 -9 26 C-8.38148105 22.6041801 -7.54535238 19.42887368 -6.40625 16.171875 C-6.09816406 15.29015625 -5.79007812 14.4084375 -5.47265625 13.5 C-5.15167969 12.5925 -4.83070313 11.685 -4.5 10.75 C-4.17902344 9.82703125 -3.85804688 8.9040625 -3.52734375 7.953125 C-1.1287911 1.1287911 -1.1287911 1.1287911 0 0 Z " fill="#575677" transform="translate(363,339)"/>
<path d="M0 0 C9.47683191 0.78680017 18.42042038 5.36945514 26 11 C22.98968256 11.93423645 22.13349732 12.04449911 19 11 C19 10.34 19 9.68 19 9 C18.34 9 17.68 9 17 9 C17 8.34 17 7.68 17 7 C15.5459375 6.8453125 15.5459375 6.8453125 14.0625 6.6875 C8.8042193 5.93631704 2.82667935 4.82667935 -1 1 C-0.67 0.67 -0.34 0.34 0 0 Z " fill="#672FDD" transform="translate(305,161)"/>
<path d="M0 0 C0 0.66 0 1.32 0 2 C-1.00417969 2.21914062 -2.00835937 2.43828125 -3.04296875 2.6640625 C-13.59794395 5.07258904 -22.67265699 8.59238274 -32.2421875 13.74609375 C-33.15226563 14.15988281 -34.06234375 14.57367188 -35 15 C-35.66 14.67 -36.32 14.34 -37 14 C-27.77448747 7.29612756 -27.77448747 7.29612756 -22 7 C-22 6.34 -22 5.68 -22 5 C-21.40832031 4.80664062 -20.81664062 4.61328125 -20.20703125 4.4140625 C-16.08341136 3.05521875 -12.01662246 1.65390337 -8 0 C-4.71023192 -1.09658936 -3.28696233 -0.79953138 0 0 Z " fill="#393853" transform="translate(226,148)"/>
<path d="M0 0 C0.73828125 1.609375 0.73828125 1.609375 1 4 C-0.58203125 7.015625 -0.58203125 7.015625 -2.8125 10.25 C-3.54082031 11.32765625 -4.26914062 12.4053125 -5.01953125 13.515625 C-5.67308594 14.33546875 -6.32664062 15.1553125 -7 16 C-7.66 16 -8.32 16 -9 16 C-9.33 16.99 -9.66 17.98 -10 19 C-11.96498322 20.38442 -13.97048465 21.71203834 -16 23 C-17.68083079 24.31543279 -19.3524116 25.64316249 -21 27 C-21.66 26.67 -22.32 26.34 -23 26 C-22.20335937 25.28714844 -21.40671875 24.57429688 -20.5859375 23.83984375 C-12.45347718 16.51255213 -5.57831068 9.50287439 0 0 Z " fill="#6C38C7" transform="translate(296,340)"/>
<path d="M0 0 C1.93457031 0.73901367 1.93457031 0.73901367 4 2 C4.72949219 3.8918457 4.72949219 3.8918457 5.046875 6.17578125 C5.16933594 7.00400391 5.29179688 7.83222656 5.41796875 8.68554688 C5.58232422 9.98588867 5.58232422 9.98588867 5.75 11.3125 C5.87503906 12.16779297 6.00007813 13.02308594 6.12890625 13.90429688 C6.70019356 17.95667001 7.16916539 21.89773936 7 26 C6.67 24.68 6.34 23.36 6 22 C5.360625 21.87625 4.72125 21.7525 4.0625 21.625 C3.0415625 21.315625 3.0415625 21.315625 2 21 C1 19 1 19 1.5 15.6875 C1.9637936 12.26702221 1.88369127 10.2696577 1 7 C0.32491581 4.44968195 0 2.68255839 0 0 Z " fill="#5B22C5" transform="translate(89,290)"/>
<path d="M0 0 C6.64650671 9.96976007 7.47713551 25.31018003 7 37 C6.67 37 6.34 37 6 37 C6 35.35 6 33.7 6 32 C5.34 32 4.68 32 4 32 C4 26.72 4 21.44 4 16 C3.01 15.67 2.02 15.34 1 15 C0.67 10.05 0.34 5.1 0 0 Z " fill="#5B2AC2" transform="translate(355,208)"/>
<path d="M0 0 C1.05316406 0.03544922 2.10632813 0.07089844 3.19140625 0.10742188 C4.19558594 0.15060547 5.19976562 0.19378906 6.234375 0.23828125 C7.60674316 0.29495972 7.60674316 0.29495972 9.00683594 0.3527832 C11.25 0.6875 11.25 0.6875 13.25 2.6875 C9.23010377 2.85611083 5.20996993 3.01655633 1.18945312 3.16967773 C-0.17619434 3.22281137 -1.54175926 3.27811539 -2.90722656 3.33569336 C-4.87801988 3.41840914 -6.8491696 3.49248839 -8.8203125 3.56640625 C-10.00383301 3.6135376 -11.18735352 3.66066895 -12.40673828 3.70922852 C-15.64059772 3.68821103 -18.58276319 3.31377785 -21.75 2.6875 C-14.97503849 -1.22113164 -7.53097301 -0.34146648 0 0 Z " fill="#323259" transform="translate(264.75,144.3125)"/>
<path d="M0 0 C0.33 0 0.66 0 1 0 C1 10.56 1 21.12 1 32 C-1.28062828 28.57905758 -1.21925007 27.31812778 -1.125 23.3125 C-1.10695313 22.31863281 -1.08890625 21.32476562 -1.0703125 20.30078125 C-1.04710938 19.54152344 -1.02390625 18.78226562 -1 18 C-1.33 18 -1.66 18 -2 18 C-2.05382106 15.37472811 -2.09358313 12.75055287 -2.125 10.125 C-2.14175781 9.37863281 -2.15851563 8.63226563 -2.17578125 7.86328125 C-2.1933959 5.90805539 -2.10320189 3.95257979 -2 2 C-1.34 1.34 -0.68 0.68 0 0 Z " fill="#5915DD" transform="translate(88,247)"/>
<path d="M0 0 C0.33 0 0.66 0 1 0 C1.02895976 3.12498063 1.04678483 6.2499269 1.0625 9.375 C1.07087891 10.26445312 1.07925781 11.15390625 1.08789062 12.0703125 C1.09111328 12.92109375 1.09433594 13.771875 1.09765625 14.6484375 C1.10289307 15.43395996 1.10812988 16.21948242 1.11352539 17.02880859 C1 19 1 19 0 21 C0.33 21.99 0.66 22.98 1 24 C-0.375 26.6875 -0.375 26.6875 -2 29 C-2.33 29 -2.66 29 -3 29 C-2.52279768 19.21735243 -1.70426788 9.66303343 0 0 Z " fill="#7746D8" transform="translate(311,277)"/>
<path d="M0 0 C0 3.86551442 -1.57801541 4.80209953 -4.0703125 7.55078125 C-7.13944447 11.44621798 -9.53882689 15.73190247 -12.01538086 20.02050781 C-12.98720563 21.69393754 -13.99065751 23.34892818 -15 25 C-15.33 25 -15.66 25 -16 25 C-16 23.35 -16 21.7 -16 20 C-15.34 19.67 -14.68 19.34 -14 19 C-13.7525 17.96875 -13.505 16.9375 -13.25 15.875 C-12.09402483 11.37229026 -9.43912418 8.07465178 -6 5 C-5.34 5 -4.68 5 -4 5 C-3.67 4.01 -3.34 3.02 -3 2 C-2.01 1.34 -1.02 0.68 0 0 Z " fill="#4D13C2" transform="translate(128,134)"/>
<path d="M0 0 C2.5625718 -0.02710123 5.12485365 -0.04688771 7.6875 -0.0625 C8.40873047 -0.07087891 9.12996094 -0.07925781 9.87304688 -0.08789062 C13.71555382 -0.10543632 17.26639526 0.06475779 21 1 C21 1.66 21 2.32 21 3 C14.07 3 7.14 3 0 3 C0 2.01 0 1.02 0 0 Z " fill="#753ADD" transform="translate(274,157)"/>
<path d="M0 0 C0.66 0.33 1.32 0.66 2 1 C2 4.3 2 7.6 2 11 C1.01 11.495 1.01 11.495 0 12 C-0.46954261 15.04581269 -0.46954261 15.04581269 -0.625 18.5625 C-0.69976562 19.76003906 -0.77453125 20.95757812 -0.8515625 22.19140625 C-0.90054687 23.11824219 -0.94953125 24.04507812 -1 25 C-2.32 25 -3.64 25 -5 25 C-3.35 16.75 -1.7 8.5 0 0 Z " fill="#58587A" transform="translate(368,313)"/>
<path d="M0 0 C6.86002488 0.41049631 11.69592627 2.47756984 17.6875 5.75 C18.51572266 6.18054688 19.34394531 6.61109375 20.19726562 7.0546875 C24.86924575 9.55339264 28.48840012 12.02352437 32 16 C31.34 16.33 30.68 16.66 30 17 C30 16.34 30 15.68 30 15 C26.41247258 13.13448574 22.72187807 11.57464072 19 10 C19 9.34 19 8.68 19 8 C18.236875 8.061875 17.47375 8.12375 16.6875 8.1875 C14 8 14 8 12.6875 6.625 C10.45136434 4.47168418 8.23711445 3.81030964 5.3125 2.8125 C4.31863281 2.46832031 3.32476562 2.12414062 2.30078125 1.76953125 C1.16189453 1.38861328 1.16189453 1.38861328 0 1 C0 0.67 0 0.34 0 0 Z " fill="#3C3E5A" transform="translate(336,108)"/>
<path d="M0 0 C0.33 0 0.66 0 1 0 C3.38776806 21.60739583 3.38776806 21.60739583 3 31 C-1.50685297 23.50120261 -2.20132367 10.00661833 -0.5 1.5 C-0.335 1.005 -0.17 0.51 0 0 Z " fill="#545373" transform="translate(102,276)"/>
<path d="M0 0 C0.66 0 1.32 0 2 0 C0.50915689 5.01465409 -1.6342463 9.62803108 -3.82421875 14.36328125 C-5.08474773 17.1900489 -6.11798777 20.03323161 -7 23 C-7.33 23 -7.66 23 -8 23 C-8.29802257 17.23823033 -7.86725509 14.13716538 -5 9 C-5 8.01 -5 7.02 -5 6 C-4.34 6 -3.68 6 -3 6 C-2.690625 5.195625 -2.38125 4.39125 -2.0625 3.5625 C-1 1 -1 1 0 0 Z " fill="#333551" transform="translate(167,185)"/>
<path d="M0 0 C-4.20584541 5.18720934 -8.60543632 6.47275469 -15 8 C-15 8.66 -15 9.32 -15 10 C-16.98 10 -18.96 10 -21 10 C-21 9.34 -21 8.68 -21 8 C-18.77208002 6.87247351 -16.54274113 5.74791861 -14.3125 4.625 C-13.68666016 4.30789063 -13.06082031 3.99078125 -12.41601562 3.6640625 C-2.56972095 -1.28486048 -2.56972095 -1.28486048 0 0 Z " fill="#6C33D6" transform="translate(278,366)"/>
<path d="M0 0 C2 3 2 3 1.89453125 5.15234375 C0.61900569 9.21285963 -1.30470315 12.81996666 -3.3125 16.5625 C-3.70373047 17.31724609 -4.09496094 18.07199219 -4.49804688 18.84960938 C-6.59703581 22.80044261 -8.56263932 26.03458816 -12 29 C-10.16508812 24.25981099 -8.08058541 19.63586749 -6 15 C-5.34 15 -4.68 15 -4 15 C-3.87625 14.29875 -3.7525 13.5975 -3.625 12.875 C-2.96108217 9.82097799 -2.00661774 6.95693962 -1 4 C-0.65023242 2.67088318 -0.30903983 1.33917261 0 0 Z " fill="#373854" transform="translate(407,349)"/>
<path d="M0 0 C0.515625 0.23203125 1.03125 0.4640625 1.5625 0.703125 C-2.1875 3.703125 -2.1875 3.703125 -4.4375 3.703125 C-4.7675 4.693125 -5.0975 5.683125 -5.4375 6.703125 C-6.55125 6.826875 -7.665 6.950625 -8.8125 7.078125 C-12.46853677 7.3497063 -12.46853677 7.3497063 -14.4375 9.703125 C-17.5625 9.828125 -17.5625 9.828125 -20.4375 9.703125 C-17.032087 6.94474047 -13.32777029 4.93081471 -9.4375 2.953125 C-8.82132812 2.62441406 -8.20515625 2.29570312 -7.5703125 1.95703125 C-3.00312595 -0.36576534 -3.00312595 -0.36576534 0 0 Z " fill="#696890" transform="translate(304.4375,420.296875)"/>
<path d="M0 0 C0 3 0 3 -2.23046875 5.453125 C-3.21036668 6.39148906 -4.19639504 7.3234807 -5.1875 8.25 C-9.32144996 12.23057136 -12.88689784 16.16932423 -16 21 C-16.33 20.34 -16.66 19.68 -17 19 C-15.7421875 16.5390625 -15.7421875 16.5390625 -13.875 13.625 C-13.27429688 12.66851562 -12.67359375 11.71203125 -12.0546875 10.7265625 C-9.94892444 7.93222292 -7.79801159 6.07654083 -5 4 C-4.1646875 3.1646875 -4.1646875 3.1646875 -3.3125 2.3125 C-2 1 -2 1 0 0 Z " fill="#363654" transform="translate(186,164)"/>
<path d="M0 0 C1.5625 1.1875 1.5625 1.1875 3 3 C2.87871602 7.48750726 0.56178082 10.44656208 -2 14 C-4 12 -4 12 -4.25 9.625 C-3.99156212 6.91140227 -3.30087931 5.35784376 -2 3 C-2 2.34 -2 1.68 -2 1 C-1.34 0.67 -0.68 0.34 0 0 Z " fill="#540ED4" transform="translate(340,359)"/>
<path d="M0 0 C1.32 0.33 2.64 0.66 4 1 C4.33 2.98 4.66 4.96 5 7 C5.66 7 6.32 7 7 7 C7 8.65 7 10.3 7 12 C7.99 12 8.98 12 10 12 C11.17571451 15.67410785 11.07366746 19.16929183 11 23 C9.18077426 20.27116139 7.93693654 17.74154957 6.625 14.75 C5.118421 11.37472657 3.56957668 8.11894634 1.6875 4.9375 C0 2 0 2 0 0 Z " fill="#5722C7" transform="translate(292,181)"/>
<path d="M0 0 C2.64 0 5.28 0 8 0 C8 0.99 8 1.98 8 3 C10.31 3 12.62 3 15 3 C14.071875 3.4021875 14.071875 3.4021875 13.125 3.8125 C10.7004767 4.95556848 10.7004767 4.95556848 9 8 C8.0925 7.38125 7.185 6.7625 6.25 6.125 C3.85051183 4.55610389 1.59038388 3.19556179 -1 2 C-0.67 1.34 -0.34 0.68 0 0 Z " fill="#611DDC" transform="translate(266,157)"/>
<path d="M0 0 C0.61875 0.639375 1.2375 1.27875 1.875 1.9375 C6.07201536 6.14668062 10.56422757 10.04656399 15 14 C11.80389448 14 10.58282374 13.45328458 7.8125 12 C7.09707031 11.62875 6.38164063 11.2575 5.64453125 10.875 C5.10183594 10.58625 4.55914062 10.2975 4 10 C4 9.34 4 8.68 4 8 C3.34 8 2.68 8 2 8 C0.23537317 4.91190305 0 3.76687864 0 0 Z " fill="#5B2DC8" transform="translate(111,350)"/>
<path d="M0 0 C-2.0475053 2.35083942 -3.58408418 3.83363367 -6.5 5 C-9 5 -9 5 -11.3125 3.0625 C-11.869375 2.381875 -12.42625 1.70125 -13 1 C-8.23947038 -0.97387813 -5.03511899 -1.0070238 0 0 Z " fill="#C7B4ED" transform="translate(184,96)"/>
<path d="M0 0 C2.2798997 2.2798997 2.93842768 3.86932037 3.11352539 7.0847168 C3.10828857 7.86500244 3.10305176 8.64528809 3.09765625 9.44921875 C3.09443359 10.29677734 3.09121094 11.14433594 3.08789062 12.01757812 C3.07951172 12.89865234 3.07113281 13.77972656 3.0625 14.6875 C3.05798828 15.58017578 3.05347656 16.47285156 3.04882812 17.39257812 C3.03704983 19.59511987 3.02060164 21.79752599 3 24 C2.67 24 2.34 24 2 24 C0.70098079 15.95072024 -0.33853295 8.16240568 0 0 Z " fill="#7442DC" transform="translate(309,229)"/>
<path d="M0 0 C0.66 0.33 1.32 0.66 2 1 C1.04996286 3.48264423 0.09050121 5.96087714 -0.875 8.4375 C-1.14441406 9.14455078 -1.41382813 9.85160156 -1.69140625 10.58007812 C-3.7734375 15.88671875 -3.7734375 15.88671875 -6 17 C-5.835 15.9275 -5.67 14.855 -5.5 13.75 C-4.91189085 9.96971248 -4.91189085 9.96971248 -5 6 C-4 3.75 -4 3.75 -3 2 C-2.01 2.33 -1.02 2.66 0 3 C0 2.01 0 1.02 0 0 Z " fill="#4E15C3" transform="translate(349,345)"/>
<path d="M0 0 C0.66 0.33 1.32 0.66 2 1 C4.40838678 1.08639869 6.78733881 1.11567764 9.1953125 1.09765625 C9.90275604 1.0962413 10.61019958 1.09482635 11.33908081 1.09336853 C13.60109669 1.087766 15.86301398 1.07521318 18.125 1.0625 C19.65755065 1.05748532 21.19010286 1.05292236 22.72265625 1.04882812 C26.48180888 1.03779577 30.24088772 1.02052952 34 1 C33.67 1.66 33.34 2.32 33 3 C29.0966221 4.14888699 25.42569263 4.04489148 21.38671875 3.87890625 C20.13955078 3.83056641 18.89238281 3.78222656 17.60742188 3.73242188 C16.31384766 3.67634766 15.02027344 3.62027344 13.6875 3.5625 C12.37458984 3.51029297 11.06167969 3.45808594 9.70898438 3.40429688 C6.47240261 3.2748336 3.23614579 3.13987458 0 3 C0 2.01 0 1.02 0 0 Z " fill="#131012" transform="translate(693,304)"/>
<path d="M0 0 C6.625 -0.125 6.625 -0.125 10 1 C12.39254576 1.22560676 14.78928123 1.40848595 17.1875 1.5625 C19.09595703 1.68818359 19.09595703 1.68818359 21.04296875 1.81640625 C22.01878906 1.87699219 22.99460938 1.93757813 24 2 C24 2.33 24 2.66 24 3 C16.41 3.33 8.82 3.66 1 4 C0.67 2.68 0.34 1.36 0 0 Z " fill="#6C38CC" transform="translate(156,379)"/>
<path d="M0 0 C1.0625 1.8125 1.0625 1.8125 2 4 C1.67 4.99 1.34 5.98 1 7 C-2.26202163 8.30480865 -5.57956185 9.21066812 -9 10 C-9 9.34 -9 8.68 -9 8 C-6.5 6.375 -6.5 6.375 -4 5 C-4.33 4.34 -4.66 3.68 -5 3 C-3.35 2.01 -1.7 1.02 0 0 Z " fill="#494E71" transform="translate(309,416)"/>
<path d="M0 0 C4.11778316 -0.24222254 7.13443193 0.63094464 11 2 C12.66088045 2.36106097 14.32618981 2.70462173 16 3 C16 3.66 16 4.32 16 5 C16.66 5 17.32 5 18 5 C18 5.66 18 6.32 18 7 C17.154375 6.690625 16.30875 6.38125 15.4375 6.0625 C12.02596062 4.88646844 12.02596062 4.88646844 8.4375 4.625 C4.55967569 3.91994103 2.83711624 2.6651698 0 0 Z " fill="#5616CE" transform="translate(110,415)"/>
<path d="M0 0 C0.66 0 1.32 0 2 0 C2 5.28 2 10.56 2 16 C1.01 15.67 0.02 15.34 -1 15 C-0.67 10.05 -0.34 5.1 0 0 Z " fill="#7C7B98" transform="translate(371,286)"/>
<path d="M0 0 C0.99 0.33 1.98 0.66 3 1 C2.125 8.75 2.125 8.75 1 11 C0.34 11 -0.32 11 -1 11 C-1 9.68 -1 8.36 -1 7 C-1.99 6.67 -2.98 6.34 -4 6 C-3 4 -3 4 -1 3 C-0.67 2.01 -0.34 1.02 0 0 Z " fill="#373B5A" transform="translate(156,207)"/>
<path d="M0 0 C0.66 0 1.32 0 2 0 C1.67 1.32 1.34 2.64 1 4 C0.34 4 -0.32 4 -1 4 C-1.33 5.98 -1.66 7.96 -2 10 C-2.99 10.33 -3.98 10.66 -5 11 C-5 13.31 -5 15.62 -5 18 C-5.66 18 -6.32 18 -7 18 C-8.17482324 14.52545194 -8.06339535 14.1324858 -6.34765625 10.546875 C-5.59841315 9.27382478 -4.83617987 8.00834874 -4.0625 6.75 C-3.67642578 6.1003125 -3.29035156 5.450625 -2.89257812 4.78125 C-1.93941582 3.18087871 -0.97114076 1.5895258 0 0 Z " fill="#5D5E7A" transform="translate(125,156)"/>
<path d="M0 0 C0.99443769 2.98331306 1.02452065 4.20838759 0.66015625 7.23046875 C0.56669922 8.03291016 0.47324219 8.83535156 0.37695312 9.66210938 C0.27318359 10.49548828 0.16941406 11.32886719 0.0625 12.1875 C-0.03740234 13.03248047 -0.13730469 13.87746094 -0.24023438 14.74804688 C-0.48757108 16.83274197 -0.74301041 18.91647284 -1 21 C-1.66 20.67 -2.32 20.34 -3 20 C-3.3689719 12.68889006 -2.81552726 6.78743178 0 0 Z " fill="#541FB4" transform="translate(94,212)"/>
<path d="M0 0 C1.32 0.33 2.64 0.66 4 1 C4 1.99 4 2.98 4 4 C2.58603098 4.50757862 1.16868271 5.00574925 -0.25 5.5 C-1.43335938 5.91765625 -1.43335938 5.91765625 -2.640625 6.34375 C-5 7 -5 7 -9 7 C-9 6.34 -9 5.68 -9 5 C-7.88625 4.731875 -6.7725 4.46375 -5.625 4.1875 C-1.78159049 3.34190981 -1.78159049 3.34190981 0 0 Z " fill="#6320CE" transform="translate(271,420)"/>
<path d="M0 0 C1.10313617 3.3094085 0.89941114 4.19482294 0.00390625 7.44921875 C-0.33930664 8.72055664 -0.33930664 8.72055664 -0.68945312 10.01757812 C-0.93630859 10.89865234 -1.18316406 11.77972656 -1.4375 12.6875 C-1.68048828 13.58017578 -1.92347656 14.47285156 -2.17382812 15.39257812 C-2.77509306 17.59721622 -3.38406657 19.79942345 -4 22 C-4.93423645 18.98968256 -5.04449911 18.13349732 -4 15 C-3.77178771 12.23186945 -3.61996711 9.46515323 -3.4765625 6.69140625 C-2.94566936 3.69316546 -1.99509322 2.25648243 0 0 Z " fill="#511CB6" transform="translate(358,314)"/>
<path d="M0 0 C0.33 0 0.66 0 1 0 C1.33745354 2.39531756 1.6700829 4.79114268 2 7.1875 C2.14308594 8.19780273 2.14308594 8.19780273 2.2890625 9.22851562 C2.78324613 12.84664577 3.11346131 16.34796401 3 20 C2.34 20.33 1.68 20.66 1 21 C0.21311555 18.22276075 -0.11949924 15.77389923 -0.09765625 12.890625 C-0.09443359 12.13652344 -0.09121094 11.38242187 -0.08789062 10.60546875 C-0.07951172 9.82816406 -0.07113281 9.05085938 -0.0625 8.25 C-0.05798828 7.45722656 -0.05347656 6.66445313 -0.04882812 5.84765625 C-0.03708565 3.89840492 -0.01915146 1.94919262 0 0 Z " fill="#6A39D0" transform="translate(41,288)"/>
<path d="M0 0 C0.33 0 0.66 0 1 0 C3.56211014 16.97397968 3.56211014 16.97397968 0 23 C-0.16834933 21.22932584 -0.33461909 19.45845388 -0.5 17.6875 C-0.5928125 16.70136719 -0.685625 15.71523437 -0.78125 14.69921875 C-1.06907397 11.14767654 -0.90906189 7.84065879 -0.5 4.3125 C-0.4071875 3.50425781 -0.314375 2.69601563 -0.21875 1.86328125 C-0.1465625 1.24839844 -0.074375 0.63351563 0 0 Z " fill="#393E58" transform="translate(153,215)"/>
<path d="M0 0 C3.89917968 1.61537444 6.71293772 4.27924873 9.75 7.125 C10.25660156 7.59292969 10.76320313 8.06085938 11.28515625 8.54296875 C12.52719141 9.69126541 13.76411494 10.84508672 15 12 C14.67 12.99 14.34 13.98 14 15 C13.67 14.01 13.34 13.02 13 12 C12.01 11.67 11.02 11.34 10 11 C10 10.34 10 9.68 10 9 C9.01 9 8.02 9 7 9 C5.17578125 7.28515625 5.17578125 7.28515625 3.3125 5.0625 C2.68988281 4.33160156 2.06726563 3.60070312 1.42578125 2.84765625 C0 1 0 1 0 0 Z " fill="#353B55" transform="translate(372,127)"/>
<path d="M0 0 C1.38576923 1.62332967 2.72641268 3.28724465 4 5 C1.69 5.33 -0.62 5.66 -3 6 C-2.34 5.34 -1.68 4.68 -1 4 C-5.455 3.01 -5.455 3.01 -10 2 C-6.16991045 -0.55339303 -4.41711378 -1.47237126 0 0 Z " fill="#8656DB" transform="translate(173,97)"/>
<path d="M0 0 C0 0.66 0 1.32 0 2 C-2.79738782 3.5067748 -5.40322432 4.48224115 -8.5 5.1875 C-9.2528125 5.36667969 -10.005625 5.54585938 -10.78125 5.73046875 C-13.14833379 6.01801942 -14.74544015 5.72248395 -17 5 C-3.81818182 0 -3.81818182 0 0 0 Z " fill="#713BD2" transform="translate(257,375)"/>
<path d="M0 0 C4.21775732 1.35525536 8.29421322 2.90200114 12.375 4.625 C13.96441406 5.29402344 13.96441406 5.29402344 15.5859375 5.9765625 C16.38257813 6.31429688 17.17921875 6.65203125 18 7 C18 7.66 18 8.32 18 9 C11.34130175 7.32168056 5.47730483 5.2533261 0 1 C0 0.67 0 0.34 0 0 Z " fill="#3E3D59" transform="translate(135,358)"/>
<path d="M0 0 C0.99 0.33 1.98 0.66 3 1 C1.04417252 2.81527107 -0.91449877 4.62728891 -2.875 6.4375 C-3.43058594 6.95376953 -3.98617187 7.47003906 -4.55859375 8.00195312 C-8.7734375 11.88671875 -8.7734375 11.88671875 -11 13 C-10.52648061 8.73832553 -7.99978097 6.84979192 -5 4 C-4.67 3.34 -4.34 2.68 -4 2 C-2.68 2 -1.36 2 0 2 C0 1.34 0 0.68 0 0 Z " fill="#4C15BC" transform="translate(141,120)"/>
<path d="M0 0 C0.99 0.33 1.98 0.66 3 1 C1.58474822 2.58459815 0.1677358 4.16762391 -1.25 5.75 C-2.03890625 6.63171875 -2.8278125 7.5134375 -3.640625 8.421875 C-5.70592672 10.67866165 -7.81735064 12.85739926 -10 15 C-10.66 14.67 -11.32 14.34 -12 14 C-11.30132812 13.32453125 -10.60265625 12.6490625 -9.8828125 11.953125 C-8.97273438 11.06109375 -8.06265625 10.1690625 -7.125 9.25 C-6.22007812 8.36828125 -5.31515625 7.4865625 -4.3828125 6.578125 C-2.35457004 4.38363316 -1.11119587 2.7332864 0 0 Z " fill="#470FB0" transform="translate(324,387)"/>
<path d="M0 0 C1.485 0.99 1.485 0.99 3 2 C3.99 2.33 4.98 2.66 6 3 C5.67 5.31 5.34 7.62 5 10 C1.91910327 7.22719294 0.31224548 4.93673644 -1 1 C-0.67 0.67 -0.34 0.34 0 0 Z " fill="#5317CD" transform="translate(68,375)"/>
<path d="M0 0 C0.66 0.66 1.32 1.32 2 2 C1.63318342 4.93453261 1.13562754 5.86437246 -1 8 C-1.6425235 10.06874034 -1.6425235 10.06874034 -2 12 C-3.32 12.33 -4.64 12.66 -6 13 C-4.31326082 8.50202887 -2.18326108 4.27113698 0 0 Z " fill="#5D5D7E" transform="translate(352,366)"/>
<path d="M0 0 C0.99 0.33 1.98 0.66 3 1 C4.0712828 7.02596573 4.09945415 12.88909517 4 19 C3.67 19 3.34 19 3 19 C1.93034128 12.67551301 0.86670454 6.35583327 0 0 Z " fill="#602EC6" transform="translate(305,211)"/>
<path d="M0 0 C0.99 0.33 1.98 0.66 3 1 C4.16796875 3.72265625 4.16796875 3.72265625 5.1875 7.0625 C5.53167969 8.16722656 5.87585938 9.27195313 6.23046875 10.41015625 C6.48441406 11.26480469 6.73835938 12.11945313 7 13 C6.01 13 5.02 13 4 13 C3.67 10.69 3.34 8.38 3 6 C2.34 6 1.68 6 1 6 C0.67 4.02 0.34 2.04 0 0 Z " fill="#52546C" transform="translate(407,175)"/>
<path d="M0 0 C1.31225809 3.93677426 0.3393954 5.7794262 -0.9375 9.6875 C-1.50791016 11.45673828 -1.50791016 11.45673828 -2.08984375 13.26171875 C-2.39019531 14.16535156 -2.69054687 15.06898438 -3 16 C-3.33 16 -3.66 16 -4 16 C-5.45131721 7.81666923 -5.45131721 7.81666923 -3.6875 4.625 C-3.130625 4.08875 -2.57375 3.5525 -2 3 C-1.34 2.01 -0.68 1.02 0 0 Z " fill="#5118C1" transform="translate(102,180)"/>
<path d="M0 0 C0.66 0.99 1.32 1.98 2 3 C0.90653119 4.34212062 -0.2001575 5.67347975 -1.3125 7 C-2.23482422 8.11375 -2.23482422 8.11375 -3.17578125 9.25 C-5 11 -5 11 -8 11 C-5.36 7.37 -2.72 3.74 0 0 Z " fill="#4F506D" transform="translate(134,143)"/>
<path d="M0 0 C5.7607103 1.29322068 9.33195882 3.37988643 14 7 C10.98968256 7.93423645 10.13349732 8.04449911 7 7 C7 6.34 7 5.68 7 5 C6.34 5 5.68 5 5 5 C5 4.34 5 3.68 5 3 C2.525 2.01 2.525 2.01 0 1 C0 0.67 0 0.34 0 0 Z " fill="#5C2ECF" transform="translate(317,165)"/>
<path d="M0 0 C4.66666667 2.33333333 9.33333333 4.66666667 14 7 C9.9996939 8.18974621 7.84714784 7.76327609 4 6 C0 1.68421053 0 1.68421053 0 0 Z " fill="#5D2BCD" transform="translate(126,365)"/>
<path d="M0 0 C-1.49097658 3.7952131 -3.75700849 5.61042731 -7 8 C-7.66 7.67 -8.32 7.34 -9 7 C-7.51191431 2.53574293 -4.79253508 0 0 0 Z " fill="#4A4D72" transform="translate(158,123)"/>
<path d="M0 0 C-0.33 0.66 -0.66 1.32 -1 2 C-3.72265625 2.6328125 -3.72265625 2.6328125 -7.0625 3.125 C-8.16722656 3.29257813 -9.27195313 3.46015625 -10.41015625 3.6328125 C-11.69212891 3.81457031 -11.69212891 3.81457031 -13 4 C-13.33 3.34 -13.66 2.68 -14 2 C-4.58997722 -1.62870159 -4.58997722 -1.62870159 0 0 Z " fill="#632ED5" transform="translate(141,104)"/>
<path d="M0 0 C0.66 0.99 1.32 1.98 2 3 C1.34 4.32 0.68 5.64 0 7 C-1.32 7 -2.64 7 -4 7 C-4 5.02 -4 3.04 -4 1 C-2.68 0.67 -1.36 0.34 0 0 Z " fill="#110E0F" transform="translate(663,317)"/>
<path d="M0 0 C8 10.10526316 8 10.10526316 8 14 C7.34 14 6.68 14 6 14 C5.67 14.66 5.34 15.32 5 16 C4.731875 14.7625 4.46375 13.525 4.1875 12.25 C3.35006103 8.82794722 2.18188924 6.77694994 0 4 C0 2.68 0 1.36 0 0 Z " fill="#5725C1" transform="translate(103,336)"/>
<path d="M0 0 C0.66 0 1.32 0 2 0 C2 5.28 2 10.56 2 16 C1.34 16 0.68 16 0 16 C-0.33 15.01 -0.66 14.02 -1 13 C-0.67 12.67 -0.34 12.34 0 12 C0.07244053 9.98035801 0.08377188 7.95832876 0.0625 5.9375 C0.05347656 4.83277344 0.04445312 3.72804688 0.03515625 2.58984375 C0.02355469 1.73519531 0.01195312 0.88054687 0 0 Z " fill="#662AE7" transform="translate(43,296)"/>
<path d="M0 0 C0.33 0.66 0.66 1.32 1 2 C3.02463255 2.65213292 3.02463255 2.65213292 5 3 C5 3.99 5 4.98 5 6 C4.34 6 3.68 6 3 6 C3 6.66 3 7.32 3 8 C1.68 7.34 0.36 6.68 -1 6 C-0.67 5.34 -0.34 4.68 0 4 C-0.66 3.34 -1.32 2.68 -2 2 C-1.34 1.34 -0.68 0.68 0 0 Z " fill="#5411DE" transform="translate(99,174)"/>
<path d="M0 0 C-1.6188996 1.03048037 -3.24532489 2.04914678 -4.875 3.0625 C-5.77992188 3.63097656 -6.68484375 4.19945313 -7.6171875 4.78515625 C-8.40351563 5.18605469 -9.18984375 5.58695312 -10 6 C-10.66 5.67 -11.32 5.34 -12 5 C-11.67 3.68 -11.34 2.36 -11 1 C-3.375 -1.125 -3.375 -1.125 0 0 Z " fill="#642FCA" transform="translate(165,107)"/>
<path d="M0 0 C-0.33 0.66 -0.66 1.32 -1 2 C-3.97 1.67 -6.94 1.34 -10 1 C-10 0.34 -10 -0.32 -10 -1 C-5.92224809 -1.9267618 -3.57818963 -2.33958553 0 0 Z " fill="#7A779E" transform="translate(198,372)"/>
<path d="M0 0 C0.66 0.33 1.32 0.66 2 1 C-1.49087093 5.0042343 -3.64951939 6.62671065 -9 7 C-8 4 -8 4 -6.22265625 2.796875 C-5.50980469 2.45140625 -4.79695313 2.1059375 -4.0625 1.75 C-3.35222656 1.39421875 -2.64195312 1.0384375 -1.91015625 0.671875 C-1.27980469 0.45015625 -0.64945312 0.2284375 0 0 Z " fill="#682ADC" transform="translate(276,365)"/>
<path d="M0 0 C0.33 0 0.66 0 1 0 C1.22354607 1.89409978 1.42819951 3.7904348 1.625 5.6875 C1.74101563 6.74324219 1.85703125 7.79898437 1.9765625 8.88671875 C2.0010326 12.13716346 1.40852563 14.10230796 0 17 C-0.33 17 -0.66 17 -1 17 C-1.33 14.03 -1.66 11.06 -2 8 C-1.34 8 -0.68 8 0 8 C0 5.36 0 2.72 0 0 Z " fill="#551FCE" transform="translate(45,304)"/>
<path d="M0 0 C3.21043882 1.38188453 5.04936365 2.92421903 7.25 5.625 C8.03117187 6.57246094 8.03117187 6.57246094 8.828125 7.5390625 C9.40820312 8.26222656 9.40820312 8.26222656 10 9 C8.02 8.34 6.04 7.68 4 7 C4 6.34 4 5.68 4 5 C3.34 5 2.68 5 2 5 C2 4.34 2 3.68 2 3 C1.34 3 0.68 3 0 3 C0 2.01 0 1.02 0 0 Z " fill="#6532CF" transform="translate(331,173)"/>
<path d="M0 0 C0.33 0.99 0.66 1.98 1 3 C0.01 4.485 0.01 4.485 -1 6 C-1.2165625 7.7634375 -1.2165625 7.7634375 -1.4375 9.5625 C-1.623125 10.696875 -1.80875 11.83125 -2 13 C-2.99 13.66 -3.98 14.32 -5 15 C-4.67 11.37 -4.34 7.74 -4 4 C-3.01 4 -2.02 4 -1 4 C-0.67 2.68 -0.34 1.36 0 0 Z " fill="#6A23DB" transform="translate(58,171)"/>
<path d="M0 0 C0.87491004 2.4497481 1.12900603 3.63448293 0.25 6.125 C-1 8 -1 8 -4 10 C-4 5.28093812 -2.71245796 3.72962969 0 0 Z " fill="#4B4D6F" transform="translate(345,379)"/>
<path d="M0 0 C0.99 0 1.98 0 3 0 C3 2.64 3 5.28 3 8 C2.01 8.33 1.02 8.66 0 9 C0 6.03 0 3.06 0 0 Z " fill="#5D5E7B" transform="translate(151,282)"/>
<path d="M0 0 C7.38461538 0.49230769 7.38461538 0.49230769 10.5 3.0625 C10.995 3.701875 11.49 4.34125 12 5 C10.35 5 8.7 5 7 5 C7 4.34 7 3.68 7 3 C6.030625 2.87625 5.06125 2.7525 4.0625 2.625 C3.051875 2.41875 2.04125 2.2125 1 2 C0.67 1.34 0.34 0.68 0 0 Z " fill="#6A31E1" transform="translate(137,373)"/>
<path d="M0 0 C0.66 0 1.32 0 2 0 C2.66 1.65 3.32 3.3 4 5 C3.34 5 2.68 5 2 5 C1.67 6.65 1.34 8.3 1 10 C0.34 9.34 -0.32 8.68 -1 8 C-0.96712417 5.27130593 -0.43602229 2.7033382 0 0 Z " fill="#3B3B63" transform="translate(364,194)"/>
<path d="M0 0 C-0.33 0.99 -0.66 1.98 -1 3 C-4.0625 4.1875 -4.0625 4.1875 -7 5 C-7 4.34 -7 3.68 -7 3 C-7.99 2.67 -8.98 2.34 -10 2 C-6.38026598 0.68373308 -3.90432869 0 0 0 Z " fill="#4A4C67" transform="translate(201,103)"/>
<path d="M0 0 C0.99 0.66 1.98 1.32 3 2 C1.515 4.475 1.515 4.475 0 7 C-0.99 6.67 -1.98 6.34 -3 6 C-2.42655063 3.13275314 -2.1385485 2.1385485 0 0 Z " fill="#464A6F" transform="translate(332,396)"/>
<path d="M0 0 C0.33 0.99 0.66 1.98 1 3 C-2.3 5.64 -5.6 8.28 -9 11 C-9.66 10.67 -10.32 10.34 -11 10 C-5.555 5.05 -5.555 5.05 0 0 Z " fill="#7B46CE" transform="translate(284,356)"/>
<path d="M0 0 C3.40898356 2.27265571 3.67054073 3.27751404 5 7 C5.65213539 8.34050052 6.31379969 9.67661368 7 11 C6.01 10.67 5.02 10.34 4 10 C4 9.34 4 8.68 4 8 C3.34 8 2.68 8 2 8 C0.23537317 4.91190305 0 3.76687864 0 0 Z " fill="#6228DD" transform="translate(111,350)"/>
<path d="M0 0 C1.32 0 2.64 0 4 0 C5.15941038 3.47823115 4.70820884 5.45895578 4 9 C1.49701566 6.06171403 0.53069061 3.82097239 0 0 Z " fill="#561ECA" transform="translate(55,354)"/>
<path d="M0 0 C0.66 0 1.32 0 2 0 C2.33 2.97 2.66 5.94 3 9 C2.01 9.33 1.02 9.66 0 10 C0 6.7 0 3.4 0 0 Z " fill="#54586F" transform="translate(154,302)"/>
<path d="M0 0 C4.62 0 9.24 0 14 0 C14 0.99 14 1.98 14 3 C12.35 3.33 10.7 3.66 9 4 C9 3.01 9 2.02 9 1 C6.03 1 3.06 1 0 1 C0 0.67 0 0.34 0 0 Z " fill="#3C415D" transform="translate(220,99)"/>
<path d="M0 0 C0 3.60573896 -0.81707462 4.41336566 -3 7.1875 C-3.556875 7.90292969 -4.11375 8.61835938 -4.6875 9.35546875 C-5.120625 9.89816406 -5.55375 10.44085938 -6 11 C-6.33 10.01 -6.66 9.02 -7 8 C-6.34 8 -5.68 8 -5 8 C-4.731875 7.05125 -4.46375 6.1025 -4.1875 5.125 C-3 2 -3 2 0 0 Z " fill="#450CB5" transform="translate(334,376)"/>
<path d="M0 0 C2.1991413 4.39828259 2.51855059 7.18550592 3 12 C2.01 12 1.02 12 0 12 C0 8.04 0 4.08 0 0 Z " fill="#5C5F74" transform="translate(418,206)"/>
<path d="M0 0 C1.32 0.33 2.64 0.66 4 1 C4.33 2.98 4.66 4.96 5 7 C5.66 7 6.32 7 7 7 C7 7.66 7 8.32 7 9 C6.01 9 5.02 9 4 9 C0 2.25 0 2.25 0 0 Z " fill="#511ACC" transform="translate(292,181)"/>
<path d="M0 0 C0 3.19610552 -0.54671542 4.41717626 -2 7.1875 C-2.37125 7.90292969 -2.7425 8.61835938 -3.125 9.35546875 C-3.558125 10.16951172 -3.558125 10.16951172 -4 11 C-4.66 11 -5.32 11 -6 11 C-5.57576756 9.53775201 -5.13509755 8.08026588 -4.6875 6.625 C-4.44386719 5.81289062 -4.20023438 5.00078125 -3.94921875 4.1640625 C-3 2 -3 2 0 0 Z " fill="#7340D5" transform="translate(61,164)"/>
<path d="M0 0 C0 3 0 3 -2 6 C-2.66 6 -3.32 6 -4 6 C-4.33 6.99 -4.66 7.98 -5 9 C-5.33 7.68 -5.66 6.36 -6 5 C-4.02 3.35 -2.04 1.7 0 0 Z " fill="#7439DD" transform="translate(291,350)"/>
<path d="M0 0 C0.66 0 1.32 0 2 0 C2 3.3 2 6.6 2 10 C1.34 10 0.68 10 0 10 C-0.19412181 8.52168779 -0.38012131 7.04230684 -0.5625 5.5625 C-0.66691406 4.73878906 -0.77132812 3.91507813 -0.87890625 3.06640625 C-0.91886719 2.38449219 -0.95882812 1.70257813 -1 1 C-0.67 0.67 -0.34 0.34 0 0 Z " fill="#6A26EB" transform="translate(89,232)"/>
<path d="M0 0 C1.15837573 3.47512718 0.77265943 5.13670286 0.0625 8.6875 C-0.22947266 10.17830078 -0.22947266 10.17830078 -0.52734375 11.69921875 C-0.76130859 12.83810547 -0.76130859 12.83810547 -1 14 C-1.33 14 -1.66 14 -2 14 C-2 9.71 -2 5.42 -2 1 C-1.34 0.67 -0.68 0.34 0 0 Z " fill="#511BBC" transform="translate(97,196)"/>
<path d="M0 0 C2.64 0 5.28 0 8 0 C6.515 1.98 6.515 1.98 5 4 C3.02 3.34 1.04 2.68 -1 2 C-0.67 1.34 -0.34 0.68 0 0 Z " fill="#4C1AC6" transform="translate(266,157)"/>
<path d="M0 0 C-1.35021826 4.41889613 -3.26115668 6.34345343 -7 9 C-4.4 0 -4.4 0 0 0 Z " fill="#363752" transform="translate(395,378)"/>
<path d="M0 0 C2.64 0 5.28 0 8 0 C7.67 0.99 7.34 1.98 7 3 C4.69 2.67 2.38 2.34 0 2 C0 1.34 0 0.68 0 0 Z " fill="#7A42D5" transform="translate(220,381)"/>
<path d="M0 0 C0.99 0 1.98 0 3 0 C3 2.64 3 5.28 3 8 C2.01 7.34 1.02 6.68 0 6 C-0.1875 2.875 -0.1875 2.875 0 0 Z " fill="#6C33E1" transform="translate(45,320)"/>
<path d="M0 0 C0.66 0 1.32 0 2 0 C1.28571429 8.57142857 1.28571429 8.57142857 -2 12 C-1 3.42857143 -1 3.42857143 0 0 Z " fill="#6C3ACA" transform="translate(307,307)"/>
<path d="M0 0 C0.66 0 1.32 0 2 0 C3.23076923 5.41538462 3.23076923 5.41538462 2.0625 8.375 C1.711875 8.91125 1.36125 9.4475 1 10 C-0.80411967 7.24075815 -1.0127245 6.11027897 -0.625 2.75 C-0.41875 1.8425 -0.2125 0.935 0 0 Z " fill="#3A3B61" transform="translate(420,289)"/>
<path d="M0 0 C1 2 1 2 0.375 4 C-1.39265071 6.57112831 -3.07589059 7.07659703 -6 8 C-4.55746343 4.63408134 -2.66735273 2.48952921 0 0 Z " fill="#6825E8" transform="translate(83,135)"/>
<path d="M0 0 C0 3.58912412 -0.66436554 4.10857029 -3 6.6875 C-3.556875 7.31011719 -4.11375 7.93273437 -4.6875 8.57421875 C-5.120625 9.04472656 -5.55375 9.51523438 -6 10 C-6.33 9.01 -6.66 8.02 -7 7 C-6.67 6.34 -6.34 5.68 -6 5 C-5.34 5 -4.68 5 -4 5 C-3.67 4.01 -3.34 3.02 -3 2 C-2.01 1.34 -1.02 0.68 0 0 Z " fill="#4511AF" transform="translate(128,134)"/>
<path d="M0 0 C1.65 0 3.3 0 5 0 C2.19195732 2.96404505 -0.18315774 5.44499019 -4 7 C-4 6.01 -4 5.02 -4 4 C-3.01 3.34 -2.02 2.68 -1 2 C-0.67 1.34 -0.34 0.68 0 0 Z " fill="#541BC0" transform="translate(148,113)"/>
<path d="M0 0 C0.66 1.32 1.32 2.64 2 4 C0.35 4.33 -1.3 4.66 -3 5 C-3 5.66 -3 6.32 -3 7 C-3.99 7.33 -4.98 7.66 -6 8 C-4.95125002 5.37812506 -4.35068687 4.20628639 -1.875 2.75 C-1.25625 2.5025 -0.6375 2.255 0 2 C0 1.34 0 0.68 0 0 Z " fill="#393A58" transform="translate(328,400)"/>
<path d="M0 0 C0.33 0.66 0.66 1.32 1 2 C4.02934491 2.65772428 4.02934491 2.65772428 7 3 C6.34 3.66 5.68 4.32 5 5 C2.6171875 4.9765625 2.6171875 4.9765625 -0.125 4.625 C-1.03507813 4.51414062 -1.94515625 4.40328125 -2.8828125 4.2890625 C-3.93082031 4.14597656 -3.93082031 4.14597656 -5 4 C-2 2 -2 2 0 2 C0 1.34 0 0.68 0 0 Z " fill="#6826EB" transform="translate(219,381)"/>
<path d="M0 0 C2.475 0.99 2.475 0.99 5 2 C5 2.99 5 3.98 5 5 C3.125 4.6875 3.125 4.6875 1 4 C0.34 3.01 -0.32 2.02 -1 1 C-0.67 0.67 -0.34 0.34 0 0 Z M-2 3 C0 4 0 4 0 4 Z " fill="#3B3E5D" transform="translate(163,339)"/>
<path d="M0 0 C3.81538462 2.46153846 3.81538462 2.46153846 4.75 5.1875 C4.8325 5.785625 4.915 6.38375 5 7 C4.01 7.495 4.01 7.495 3 8 C1.5 6.8125 1.5 6.8125 0 5 C-0.1875 2.3125 -0.1875 2.3125 0 0 Z " fill="#5411DE" transform="translate(51,335)"/>
<path d="M0 0 C0.99 0 1.98 0 3 0 C3.33 0.99 3.66 1.98 4 3 C2.625 5.6875 2.625 5.6875 1 8 C0.67 8 0.34 8 0 8 C0 5.36 0 2.72 0 0 Z " fill="#7037D7" transform="translate(308,298)"/>
<path d="M0 0 C2.50298434 2.93828597 3.46930939 5.17902761 4 9 C2.66666667 9 1.33333333 9 0 9 C0 6.03 0 3.06 0 0 Z " fill="#5820C8" transform="translate(351,199)"/>
<path d="M0 0 C0.66 0.66 1.32 1.32 2 2 C2.66 1.34 3.32 0.68 4 0 C4.66 1.98 5.32 3.96 6 6 C3.69 5.67 1.38 5.34 -1 5 C-0.67 3.35 -0.34 1.7 0 0 Z " fill="#5417CF" transform="translate(345,193)"/>
<path d="M0 0 C7.42857143 -0.14285714 7.42857143 -0.14285714 11 1 C11 1.66 11 2.32 11 3 C4.6 3.36923077 4.6 3.36923077 1.5625 1.5 C1.046875 1.005 0.53125 0.51 0 0 Z " fill="#57596F" transform="translate(304,99)"/>
<path d="M0 0 C2.475 0.99 2.475 0.99 5 2 C5 2.99 5 3.98 5 5 C4.01 5 3.02 5 2 5 C2 4.34 2 3.68 2 3 C1.01 3 0.02 3 -1 3 C-0.67 2.01 -0.34 1.02 0 0 Z " fill="#545576" transform="translate(189,366)"/>
<path d="M0 0 C0.66 0 1.32 0 2 0 C2.33 2.97 2.66 5.94 3 9 C2.34 9 1.68 9 1 9 C0.67 6.03 0.34 3.06 0 0 Z " fill="#3E3D60" transform="translate(366,207)"/>
<path d="M0 0 C-0.5625 1.9375 -0.5625 1.9375 -2 4 C-5.625 4.75 -5.625 4.75 -9 5 C-6.45523312 2.20075644 -3.92372883 0 0 0 Z " fill="#4B4D6A" transform="translate(176,112)"/>
<path d="M0 0 C2.56269497 1.04109483 4.02610343 2.02610343 6 4 C4.25 4.75 4.25 4.75 2 5 C-0.25 3.0625 -0.25 3.0625 -2 1 C-1.34 0.67 -0.68 0.34 0 0 Z " fill="#AF88F4" transform="translate(173,96)"/>
<path d="M0 0 C0.625 1.8125 0.625 1.8125 1 4 C0.01 5.485 0.01 5.485 -1 7 C-1.66 7 -2.32 7 -3 7 C-3.33 5.35 -3.66 3.7 -4 2 C-2.68 1.34 -1.36 0.68 0 0 Z " fill="#3B3F61" transform="translate(397,369)"/>
<path d="M0 0 C0.99 0.33 1.98 0.66 3 1 C3 3.97 3 6.94 3 10 C1.19669467 6.39338934 0.53400897 3.91606575 0 0 Z " fill="#4E4C6C" transform="translate(107,315)"/>
<path d="M0 0 C0.66 0 1.32 0 2 0 C2.33 0.99 2.66 1.98 3 3 C3.66 3.33 4.32 3.66 5 4 C5 5.65 5 7.3 5 9 C4.67 7.68 4.34 6.36 4 5 C3.360625 4.87625 2.72125 4.7525 2.0625 4.625 C1.381875 4.41875 0.70125 4.2125 0 4 C-0.33 3.34 -0.66 2.68 -1 2 C-0.67 1.34 -0.34 0.68 0 0 Z " fill="#5C1DD6" transform="translate(91,307)"/>
<path d="M0 0 C0.99 0.33 1.98 0.66 3 1 C3 2.98 3 4.96 3 7 C2.01 6.67 1.02 6.34 0 6 C0 4.02 0 2.04 0 0 Z " fill="#6A6888" transform="translate(370,295)"/>
<path d="M0 0 C0.33 0 0.66 0 1 0 C1 2.97 1 5.94 1 9 C0.01 9.33 -0.98 9.66 -2 10 C-1.34 6.7 -0.68 3.4 0 0 Z " fill="#4F5071" transform="translate(113,184)"/>
<path d="M0 0 C-2.55068845 2.35448165 -3.71017358 2.98327924 -7.25 3.1875 C-8.1575 3.125625 -9.065 3.06375 -10 3 C-4.37755102 -1.45918367 -4.37755102 -1.45918367 0 0 Z " fill="#6E68A1" transform="translate(294,427)"/>
<path d="M0 0 C0.66 0.33 1.32 0.66 2 1 C2 3.64 2 6.28 2 9 C1.67 8.34 1.34 7.68 1 7 C0.34 7 -0.32 7 -1 7 C-0.67 4.69 -0.34 2.38 0 0 Z " fill="#6B6785" transform="translate(368,313)"/>
</svg>
